<svg xmlns="http://www.w3.org/2000/svg" xmlns:xlink="http://www.w3.org/1999/xlink" width="500" zoomAndPan="magnify" viewBox="0 0 375 374.999991" height="500" preserveAspectRatio="xMidYMid meet" version="1.0"><defs><g/><clipPath id="1c2d8a63ea"><path d="M 69.972656 29.363281 L 222.222656 29.363281 L 222.222656 252.863281 L 69.972656 252.863281 Z M 69.972656 29.363281 " clip-rule="nonzero"/></clipPath><clipPath id="b33b983b8e"><path d="M 150 57 L 281 57 L 281 243 L 150 243 Z M 150 57 " clip-rule="nonzero"/></clipPath><clipPath id="2513635f89"><path d="M 184.664062 53.5 L 284.875 76.183594 L 246.464844 245.890625 L 146.25 223.207031 Z M 184.664062 53.5 " clip-rule="nonzero"/></clipPath><clipPath id="a9919152d5"><path d="M 184.664062 53.5 L 284.875 76.183594 L 246.464844 245.890625 L 146.25 223.207031 Z M 184.664062 53.5 " clip-rule="nonzero"/></clipPath></defs><g clip-path="url(#1c2d8a63ea)"><path fill="#e3a72f" d="M 167.167969 29.394531 L 195.828125 29.394531 C 199.101562 29.394531 201.757812 32.042969 201.773438 35.320312 C 201.773438 35.339844 201.773438 35.355469 201.773438 35.375 L 203.128906 54.800781 C 203.160156 55.222656 203.453125 55.574219 203.855469 55.679688 C 210.035156 57.300781 215.949219 59.566406 221.519531 62.421875 C 221.523438 62.421875 221.527344 62.421875 221.527344 62.425781 C 222.0625 62.703125 222.214844 63.390625 221.851562 63.867188 L 208.277344 81.730469 C 208.007812 82.085938 207.527344 82.214844 207.117188 82.035156 C 204.800781 81.023438 202.410156 80.148438 199.964844 79.410156 C 196.828125 78.472656 193.59375 77.765625 190.28125 77.308594 C 188.292969 77.039062 186.277344 76.859375 184.238281 76.773438 C 183.328125 76.734375 182.414062 76.714844 181.496094 76.714844 C 179.734375 76.714844 177.988281 76.785156 176.257812 76.925781 C 157.4375 78.445312 140.902344 88.085938 130.15625 102.351562 C 122.03125 113.136719 117.210938 126.5625 117.210938 141.113281 C 117.210938 176.683594 145.992188 205.515625 181.496094 205.515625 C 190.605469 205.515625 199.269531 203.617188 207.117188 200.195312 C 207.53125 200.015625 208.007812 200.144531 208.277344 200.5 L 209.554688 202.175781 L 221.84375 218.347656 C 222.210938 218.832031 222.054688 219.527344 221.519531 219.808594 C 221.453125 219.839844 221.390625 219.875 221.324219 219.90625 C 221.238281 219.953125 221.152344 219.996094 221.0625 220.039062 C 218.269531 221.449219 215.386719 222.714844 212.433594 223.824219 C 209.640625 224.871094 206.777344 225.78125 203.855469 226.546875 C 203.453125 226.652344 203.160156 227.007812 203.128906 227.425781 L 201.773438 246.855469 C 201.773438 246.871094 201.773438 246.886719 201.773438 246.90625 C 201.757812 250.179688 199.101562 252.835938 195.828125 252.835938 L 167.167969 252.835938 C 163.890625 252.835938 161.234375 250.179688 161.222656 246.90625 C 161.222656 246.886719 161.222656 246.871094 161.222656 246.855469 L 159.863281 227.425781 C 159.835938 227.007812 159.542969 226.652344 159.136719 226.546875 C 151.28125 224.488281 143.851562 221.375 137.011719 217.359375 C 136.648438 217.148438 136.191406 217.1875 135.875 217.460938 L 121.199219 230.246094 C 121.1875 230.261719 121.171875 230.269531 121.160156 230.285156 C 118.839844 232.589844 115.089844 232.582031 112.773438 230.265625 L 100.421875 217.890625 L 92.507812 209.960938 C 90.191406 207.640625 90.1875 203.882812 92.488281 201.558594 C 92.5 201.546875 92.511719 201.535156 92.523438 201.519531 L 105.285156 186.816406 C 105.558594 186.5 105.597656 186.042969 105.386719 185.679688 C 101.378906 178.824219 98.269531 171.386719 96.214844 163.515625 C 96.109375 163.109375 95.761719 162.8125 95.339844 162.785156 L 75.945312 161.429688 C 75.929688 161.425781 75.910156 161.425781 75.894531 161.425781 C 72.625 161.410156 69.976562 158.75 69.976562 155.472656 L 69.976562 126.753906 C 69.976562 123.476562 72.625 120.816406 75.894531 120.800781 C 75.910156 120.800781 75.929688 120.800781 75.945312 120.800781 L 95.339844 119.441406 C 95.761719 119.414062 96.109375 119.117188 96.214844 118.710938 C 98.269531 110.84375 101.378906 103.402344 105.386719 96.546875 C 105.597656 96.1875 105.558594 95.730469 105.285156 95.410156 L 103.132812 92.929688 L 92.523438 80.707031 C 92.511719 80.691406 92.5 80.679688 92.488281 80.667969 C 90.1875 78.34375 90.191406 74.585938 92.507812 72.269531 L 100.421875 64.335938 L 112.773438 51.960938 C 115.089844 49.644531 118.839844 49.636719 121.160156 51.945312 C 121.171875 51.957031 121.1875 51.96875 121.199219 51.980469 L 135.875 64.765625 C 136.191406 65.039062 136.648438 65.082031 137.011719 64.867188 C 142.921875 61.402344 149.265625 58.601562 155.953125 56.578125 C 157.007812 56.261719 158.066406 55.960938 159.136719 55.679688 C 159.542969 55.574219 159.835938 55.222656 159.863281 54.800781 L 160.066406 51.925781 L 160.234375 49.519531 L 160.734375 42.320312 L 161.222656 35.375 C 161.222656 35.355469 161.222656 35.339844 161.222656 35.320312 C 161.234375 32.042969 163.890625 29.394531 167.167969 29.394531 " fill-opacity="1" fill-rule="nonzero"/></g><g clip-path="url(#b33b983b8e)"><g clip-path="url(#2513635f89)"><g clip-path="url(#a9919152d5)"><path fill="#072349" d="M 265.585938 71.816406 L 203.953125 57.867188 C 193.320312 55.460938 182.734375 62.148438 180.324219 72.792969 L 150.644531 203.929688 C 148.234375 214.574219 154.90625 225.167969 165.539062 227.574219 L 227.171875 241.523438 C 237.804688 243.929688 248.390625 237.246094 250.800781 226.601562 L 280.484375 95.460938 C 282.890625 84.816406 276.21875 74.226562 265.585938 71.816406 Z M 198.101562 226.835938 C 191.707031 225.386719 187.714844 219.050781 189.164062 212.648438 C 190.613281 206.246094 196.945312 202.246094 203.339844 203.695312 C 209.734375 205.140625 213.726562 211.476562 212.277344 217.878906 C 210.828125 224.28125 204.496094 228.28125 198.101562 226.835938 Z M 239.757812 203.828125 L 170.417969 188.132812 L 194.863281 80.136719 L 264.199219 95.832031 Z M 239.757812 203.828125 " fill-opacity="1" fill-rule="nonzero"/></g></g></g><g fill="#e3a72f" fill-opacity="0.4"><g transform="translate(59.884057, 305.661892)"><g><path d="M 4.09375 0 C 3.675781 0 3.34375 -0.128906 3.09375 -0.390625 C 2.851562 -0.648438 2.734375 -1.007812 2.734375 -1.46875 L 2.734375 -37.796875 C 2.734375 -38.210938 2.820312 -38.515625 3 -38.703125 C 3.175781 -38.898438 3.457031 -39 3.84375 -39 L 18.546875 -39 C 19.003906 -39 19.328125 -38.9375 19.515625 -38.8125 C 19.710938 -38.695312 19.882812 -38.445312 20.03125 -38.0625 L 25.5 -21.34375 C 25.601562 -21.0625 25.722656 -20.921875 25.859375 -20.921875 C 25.960938 -20.921875 26.066406 -21.0625 26.171875 -21.34375 L 31.0625 -37.484375 C 31.34375 -38.492188 31.816406 -39 32.484375 -39 L 47.671875 -39 C 48.304688 -39 48.625 -38.628906 48.625 -37.890625 L 48.625 -1.53125 C 48.625 -0.96875 48.488281 -0.570312 48.21875 -0.34375 C 47.957031 -0.113281 47.53125 0 46.9375 0 L 38.0625 0 C 37.53125 0 37.164062 -0.101562 36.96875 -0.3125 C 36.78125 -0.519531 36.6875 -0.851562 36.6875 -1.3125 L 36.6875 -24.921875 C 36.6875 -25.191406 36.617188 -25.328125 36.484375 -25.328125 C 36.304688 -25.328125 36.164062 -25.171875 36.0625 -24.859375 L 28.484375 -0.953125 C 28.242188 -0.316406 27.828125 0 27.234375 0 L 21.703125 0 C 21.078125 0 20.660156 -0.316406 20.453125 -0.953125 L 12.875 -24.4375 C 12.769531 -24.789062 12.648438 -24.96875 12.515625 -24.96875 C 12.335938 -24.96875 12.25 -24.773438 12.25 -24.390625 L 12.25 -1.15625 C 12.25 -0.695312 12.175781 -0.390625 12.03125 -0.234375 C 11.894531 -0.078125 11.582031 0 11.09375 0 Z M 4.09375 0 "/></g></g></g><g fill="#e3a72f" fill-opacity="0.4"><g transform="translate(111.238613, 305.661892)"><g><path d="M 20.546875 0.53125 C 16.734375 0.53125 13.394531 -0.28125 10.53125 -1.90625 C 7.675781 -3.539062 5.476562 -5.851562 3.9375 -8.84375 C 2.394531 -11.84375 1.625 -15.359375 1.625 -19.390625 C 1.625 -23.421875 2.40625 -26.953125 3.96875 -29.984375 C 5.53125 -33.015625 7.738281 -35.363281 10.59375 -37.03125 C 13.445312 -38.695312 16.765625 -39.53125 20.546875 -39.53125 C 24.296875 -39.53125 27.585938 -38.695312 30.421875 -37.03125 C 33.265625 -35.363281 35.46875 -33.015625 37.03125 -29.984375 C 38.59375 -26.953125 39.375 -23.421875 39.375 -19.390625 C 39.375 -15.398438 38.601562 -11.894531 37.0625 -8.875 C 35.519531 -5.863281 33.328125 -3.539062 30.484375 -1.90625 C 27.648438 -0.28125 24.335938 0.53125 20.546875 0.53125 Z M 20.546875 -7.671875 C 22.085938 -7.671875 23.3125 -8.046875 24.21875 -8.796875 C 25.132812 -9.554688 25.800781 -10.773438 26.21875 -12.453125 C 26.644531 -14.140625 26.859375 -16.398438 26.859375 -19.234375 C 26.859375 -23.578125 26.367188 -26.695312 25.390625 -28.59375 C 24.410156 -30.488281 22.796875 -31.4375 20.546875 -31.4375 C 18.273438 -31.4375 16.640625 -30.488281 15.640625 -28.59375 C 14.640625 -26.695312 14.140625 -23.578125 14.140625 -19.234375 C 14.140625 -16.398438 14.347656 -14.140625 14.765625 -12.453125 C 15.191406 -10.773438 15.867188 -9.554688 16.796875 -8.796875 C 17.722656 -8.046875 18.972656 -7.671875 20.546875 -7.671875 Z M 20.546875 -7.671875 "/></g></g></g><g fill="#e3a72f" fill-opacity="0.4"><g transform="translate(152.238149, 305.661892)"><g><path d="M 3.9375 0 C 3.59375 0 3.304688 -0.113281 3.078125 -0.34375 C 2.847656 -0.570312 2.734375 -0.84375 2.734375 -1.15625 L 2.734375 -37.640625 C 2.734375 -38.023438 2.851562 -38.347656 3.09375 -38.609375 C 3.34375 -38.867188 3.660156 -39 4.046875 -39 L 19.703125 -39 C 25.171875 -39 29.316406 -38.128906 32.140625 -36.390625 C 34.960938 -34.660156 36.375 -32.097656 36.375 -28.703125 C 36.375 -26.835938 35.863281 -25.265625 34.84375 -23.984375 C 33.832031 -22.710938 32.046875 -21.484375 29.484375 -20.296875 C 29.410156 -20.253906 29.375 -20.1875 29.375 -20.09375 C 29.375 -20.007812 29.410156 -19.953125 29.484375 -19.921875 C 32.328125 -18.867188 34.34375 -17.625 35.53125 -16.1875 C 36.71875 -14.75 37.3125 -12.894531 37.3125 -10.625 C 37.3125 -7.007812 35.9375 -4.332031 33.1875 -2.59375 C 30.4375 -0.863281 26.222656 0 20.546875 0 Z M 20.546875 -23.765625 C 21.773438 -23.765625 22.753906 -24.09375 23.484375 -24.75 C 24.222656 -25.414062 24.59375 -26.273438 24.59375 -27.328125 C 24.59375 -28.453125 24.171875 -29.363281 23.328125 -30.0625 C 22.492188 -30.757812 21.445312 -31.109375 20.1875 -31.109375 L 15.875 -31.109375 C 15.414062 -31.109375 15.097656 -31.03125 14.921875 -30.875 C 14.753906 -30.71875 14.671875 -30.445312 14.671875 -30.0625 L 14.671875 -24.921875 C 14.671875 -24.492188 14.738281 -24.191406 14.875 -24.015625 C 15.007812 -23.847656 15.238281 -23.765625 15.5625 -23.765625 Z M 20.296875 -7.890625 C 21.722656 -7.890625 22.847656 -8.289062 23.671875 -9.09375 C 24.503906 -9.894531 24.921875 -10.84375 24.921875 -11.9375 C 24.921875 -13.019531 24.515625 -13.910156 23.703125 -14.609375 C 22.898438 -15.304688 21.847656 -15.65625 20.546875 -15.65625 L 15.875 -15.65625 C 15.414062 -15.65625 15.097656 -15.566406 14.921875 -15.390625 C 14.753906 -15.222656 14.671875 -14.945312 14.671875 -14.5625 L 14.671875 -9.046875 C 14.671875 -8.617188 14.738281 -8.316406 14.875 -8.140625 C 15.007812 -7.972656 15.238281 -7.890625 15.5625 -7.890625 Z M 20.296875 -7.890625 "/></g></g></g><g fill="#e3a72f" fill-opacity="0.4"><g transform="translate(191.082583, 305.661892)"><g><path d="M 20.546875 0.53125 C 16.734375 0.53125 13.394531 -0.28125 10.53125 -1.90625 C 7.675781 -3.539062 5.476562 -5.851562 3.9375 -8.84375 C 2.394531 -11.84375 1.625 -15.359375 1.625 -19.390625 C 1.625 -23.421875 2.40625 -26.953125 3.96875 -29.984375 C 5.53125 -33.015625 7.738281 -35.363281 10.59375 -37.03125 C 13.445312 -38.695312 16.765625 -39.53125 20.546875 -39.53125 C 24.296875 -39.53125 27.585938 -38.695312 30.421875 -37.03125 C 33.265625 -35.363281 35.46875 -33.015625 37.03125 -29.984375 C 38.59375 -26.953125 39.375 -23.421875 39.375 -19.390625 C 39.375 -15.398438 38.601562 -11.894531 37.0625 -8.875 C 35.519531 -5.863281 33.328125 -3.539062 30.484375 -1.90625 C 27.648438 -0.28125 24.335938 0.53125 20.546875 0.53125 Z M 20.546875 -7.671875 C 22.085938 -7.671875 23.3125 -8.046875 24.21875 -8.796875 C 25.132812 -9.554688 25.800781 -10.773438 26.21875 -12.453125 C 26.644531 -14.140625 26.859375 -16.398438 26.859375 -19.234375 C 26.859375 -23.578125 26.367188 -26.695312 25.390625 -28.59375 C 24.410156 -30.488281 22.796875 -31.4375 20.546875 -31.4375 C 18.273438 -31.4375 16.640625 -30.488281 15.640625 -28.59375 C 14.640625 -26.695312 14.140625 -23.578125 14.140625 -19.234375 C 14.140625 -16.398438 14.347656 -14.140625 14.765625 -12.453125 C 15.191406 -10.773438 15.867188 -9.554688 16.796875 -8.796875 C 17.722656 -8.046875 18.972656 -7.671875 20.546875 -7.671875 Z M 20.546875 -7.671875 "/></g></g></g><g fill="#e3a72f" fill-opacity="0.4"><g transform="translate(232.082119, 305.661892)"><g><path d="M 2.734375 -37.796875 C 2.734375 -38.179688 2.820312 -38.476562 3 -38.6875 C 3.175781 -38.894531 3.421875 -39 3.734375 -39 L 31.75 -39 C 32.375 -39 32.6875 -38.628906 32.6875 -37.890625 L 32.640625 -31.796875 C 32.640625 -30.847656 32.203125 -30.375 31.328125 -30.375 L 15.875 -30.375 C 15.070312 -30.375 14.671875 -30.039062 14.671875 -29.375 L 14.671875 -24.4375 C 14.671875 -23.738281 14.984375 -23.390625 15.609375 -23.390625 L 25.234375 -23.390625 C 25.929688 -23.390625 26.28125 -23.039062 26.28125 -22.34375 L 26.28125 -15.921875 C 26.28125 -15.328125 25.960938 -15.03125 25.328125 -15.03125 L 15.5 -15.03125 C 15.257812 -15.03125 15.0625 -14.957031 14.90625 -14.8125 C 14.75 -14.675781 14.671875 -14.488281 14.671875 -14.25 L 14.671875 -1.53125 C 14.671875 -0.96875 14.53125 -0.570312 14.25 -0.34375 C 13.96875 -0.113281 13.53125 0 12.9375 0 L 4.15625 0 C 3.625 0 3.253906 -0.101562 3.046875 -0.3125 C 2.835938 -0.519531 2.734375 -0.851562 2.734375 -1.3125 Z M 2.734375 -37.796875 "/></g></g></g><g fill="#e3a72f" fill-opacity="0.4"><g transform="translate(266.248407, 305.661892)"><g><path d="M 13.71875 -39 C 14.351562 -39 14.671875 -38.628906 14.671875 -37.890625 L 14.671875 -1.53125 C 14.671875 -0.96875 14.53125 -0.570312 14.25 -0.34375 C 13.96875 -0.113281 13.53125 0 12.9375 0 L 4.15625 0 C 3.625 0 3.253906 -0.101562 3.046875 -0.3125 C 2.835938 -0.519531 2.734375 -0.851562 2.734375 -1.3125 L 2.734375 -37.796875 C 2.734375 -38.179688 2.820312 -38.476562 3 -38.6875 C 3.175781 -38.894531 3.421875 -39 3.734375 -39 Z M 13.71875 -39 "/></g></g></g><g fill="#e3a72f" fill-opacity="0.4"><g transform="translate(283.646924, 305.661892)"><g><path d="M 37.796875 -2.6875 C 38.285156 -1.945312 38.53125 -1.347656 38.53125 -0.890625 C 38.53125 -0.296875 38.039062 0 37.0625 0 L 27.59375 0 C 26.507812 0 25.773438 -0.347656 25.390625 -1.046875 L 19.609375 -10.9375 C 19.285156 -11.457031 19.039062 -11.71875 18.875 -11.71875 C 18.65625 -11.71875 18.410156 -11.472656 18.140625 -10.984375 L 12.453125 -1.046875 C 12.066406 -0.347656 11.316406 0 10.203125 0 L 2.734375 0 C 1.753906 0 1.265625 -0.28125 1.265625 -0.84375 C 1.265625 -1.226562 1.523438 -1.84375 2.046875 -2.6875 L 12.40625 -18.71875 C 12.644531 -19.0625 12.765625 -19.375 12.765625 -19.65625 C 12.765625 -19.90625 12.644531 -20.222656 12.40625 -20.609375 L 1.78125 -37.15625 C 1.613281 -37.375 1.53125 -37.675781 1.53125 -38.0625 C 1.53125 -38.6875 1.894531 -39 2.625 -39 L 12.5625 -39 C 13.125 -39 13.5625 -38.910156 13.875 -38.734375 C 14.1875 -38.554688 14.453125 -38.273438 14.671875 -37.890625 L 19.453125 -29.4375 C 19.617188 -29.15625 19.8125 -29.015625 20.03125 -29.015625 C 20.238281 -29.015625 20.429688 -29.15625 20.609375 -29.4375 L 25.390625 -37.890625 C 25.597656 -38.273438 25.847656 -38.554688 26.140625 -38.734375 C 26.441406 -38.910156 26.875 -39 27.4375 -39 L 35.578125 -39 C 36.285156 -39 36.640625 -38.738281 36.640625 -38.21875 C 36.640625 -37.96875 36.515625 -37.648438 36.265625 -37.265625 L 26.328125 -22.03125 C 26.117188 -21.707031 26.015625 -21.425781 26.015625 -21.1875 C 26.015625 -20.9375 26.15625 -20.582031 26.4375 -20.125 Z M 37.796875 -2.6875 "/></g></g></g><g fill="#e3a72f" fill-opacity="1"><g transform="translate(57.560704, 303.338534)"><g><path d="M 4.09375 0 C 3.675781 0 3.34375 -0.128906 3.09375 -0.390625 C 2.851562 -0.648438 2.734375 -1.007812 2.734375 -1.46875 L 2.734375 -37.796875 C 2.734375 -38.210938 2.820312 -38.515625 3 -38.703125 C 3.175781 -38.898438 3.457031 -39 3.84375 -39 L 18.546875 -39 C 19.003906 -39 19.328125 -38.9375 19.515625 -38.8125 C 19.710938 -38.695312 19.882812 -38.445312 20.03125 -38.0625 L 25.5 -21.34375 C 25.601562 -21.0625 25.722656 -20.921875 25.859375 -20.921875 C 25.960938 -20.921875 26.066406 -21.0625 26.171875 -21.34375 L 31.0625 -37.484375 C 31.34375 -38.492188 31.816406 -39 32.484375 -39 L 47.671875 -39 C 48.304688 -39 48.625 -38.628906 48.625 -37.890625 L 48.625 -1.53125 C 48.625 -0.96875 48.488281 -0.570312 48.21875 -0.34375 C 47.957031 -0.113281 47.53125 0 46.9375 0 L 38.0625 0 C 37.53125 0 37.164062 -0.101562 36.96875 -0.3125 C 36.78125 -0.519531 36.6875 -0.851562 36.6875 -1.3125 L 36.6875 -24.921875 C 36.6875 -25.191406 36.617188 -25.328125 36.484375 -25.328125 C 36.304688 -25.328125 36.164062 -25.171875 36.0625 -24.859375 L 28.484375 -0.953125 C 28.242188 -0.316406 27.828125 0 27.234375 0 L 21.703125 0 C 21.078125 0 20.660156 -0.316406 20.453125 -0.953125 L 12.875 -24.4375 C 12.769531 -24.789062 12.648438 -24.96875 12.515625 -24.96875 C 12.335938 -24.96875 12.25 -24.773438 12.25 -24.390625 L 12.25 -1.15625 C 12.25 -0.695312 12.175781 -0.390625 12.03125 -0.234375 C 11.894531 -0.078125 11.582031 0 11.09375 0 Z M 4.09375 0 "/></g></g></g><g fill="#e3a72f" fill-opacity="1"><g transform="translate(108.91526, 303.338534)"><g><path d="M 20.546875 0.53125 C 16.734375 0.53125 13.394531 -0.28125 10.53125 -1.90625 C 7.675781 -3.539062 5.476562 -5.851562 3.9375 -8.84375 C 2.394531 -11.84375 1.625 -15.359375 1.625 -19.390625 C 1.625 -23.421875 2.40625 -26.953125 3.96875 -29.984375 C 5.53125 -33.015625 7.738281 -35.363281 10.59375 -37.03125 C 13.445312 -38.695312 16.765625 -39.53125 20.546875 -39.53125 C 24.296875 -39.53125 27.585938 -38.695312 30.421875 -37.03125 C 33.265625 -35.363281 35.46875 -33.015625 37.03125 -29.984375 C 38.59375 -26.953125 39.375 -23.421875 39.375 -19.390625 C 39.375 -15.398438 38.601562 -11.894531 37.0625 -8.875 C 35.519531 -5.863281 33.328125 -3.539062 30.484375 -1.90625 C 27.648438 -0.28125 24.335938 0.53125 20.546875 0.53125 Z M 20.546875 -7.671875 C 22.085938 -7.671875 23.3125 -8.046875 24.21875 -8.796875 C 25.132812 -9.554688 25.800781 -10.773438 26.21875 -12.453125 C 26.644531 -14.140625 26.859375 -16.398438 26.859375 -19.234375 C 26.859375 -23.578125 26.367188 -26.695312 25.390625 -28.59375 C 24.410156 -30.488281 22.796875 -31.4375 20.546875 -31.4375 C 18.273438 -31.4375 16.640625 -30.488281 15.640625 -28.59375 C 14.640625 -26.695312 14.140625 -23.578125 14.140625 -19.234375 C 14.140625 -16.398438 14.347656 -14.140625 14.765625 -12.453125 C 15.191406 -10.773438 15.867188 -9.554688 16.796875 -8.796875 C 17.722656 -8.046875 18.972656 -7.671875 20.546875 -7.671875 Z M 20.546875 -7.671875 "/></g></g></g><g fill="#e3a72f" fill-opacity="1"><g transform="translate(149.914796, 303.338534)"><g><path d="M 3.9375 0 C 3.59375 0 3.304688 -0.113281 3.078125 -0.34375 C 2.847656 -0.570312 2.734375 -0.84375 2.734375 -1.15625 L 2.734375 -37.640625 C 2.734375 -38.023438 2.851562 -38.347656 3.09375 -38.609375 C 3.34375 -38.867188 3.660156 -39 4.046875 -39 L 19.703125 -39 C 25.171875 -39 29.316406 -38.128906 32.140625 -36.390625 C 34.960938 -34.660156 36.375 -32.097656 36.375 -28.703125 C 36.375 -26.835938 35.863281 -25.265625 34.84375 -23.984375 C 33.832031 -22.710938 32.046875 -21.484375 29.484375 -20.296875 C 29.410156 -20.253906 29.375 -20.1875 29.375 -20.09375 C 29.375 -20.007812 29.410156 -19.953125 29.484375 -19.921875 C 32.328125 -18.867188 34.34375 -17.625 35.53125 -16.1875 C 36.71875 -14.75 37.3125 -12.894531 37.3125 -10.625 C 37.3125 -7.007812 35.9375 -4.332031 33.1875 -2.59375 C 30.4375 -0.863281 26.222656 0 20.546875 0 Z M 20.546875 -23.765625 C 21.773438 -23.765625 22.753906 -24.09375 23.484375 -24.75 C 24.222656 -25.414062 24.59375 -26.273438 24.59375 -27.328125 C 24.59375 -28.453125 24.171875 -29.363281 23.328125 -30.0625 C 22.492188 -30.757812 21.445312 -31.109375 20.1875 -31.109375 L 15.875 -31.109375 C 15.414062 -31.109375 15.097656 -31.03125 14.921875 -30.875 C 14.753906 -30.71875 14.671875 -30.445312 14.671875 -30.0625 L 14.671875 -24.921875 C 14.671875 -24.492188 14.738281 -24.191406 14.875 -24.015625 C 15.007812 -23.847656 15.238281 -23.765625 15.5625 -23.765625 Z M 20.296875 -7.890625 C 21.722656 -7.890625 22.847656 -8.289062 23.671875 -9.09375 C 24.503906 -9.894531 24.921875 -10.84375 24.921875 -11.9375 C 24.921875 -13.019531 24.515625 -13.910156 23.703125 -14.609375 C 22.898438 -15.304688 21.847656 -15.65625 20.546875 -15.65625 L 15.875 -15.65625 C 15.414062 -15.65625 15.097656 -15.566406 14.921875 -15.390625 C 14.753906 -15.222656 14.671875 -14.945312 14.671875 -14.5625 L 14.671875 -9.046875 C 14.671875 -8.617188 14.738281 -8.316406 14.875 -8.140625 C 15.007812 -7.972656 15.238281 -7.890625 15.5625 -7.890625 Z M 20.296875 -7.890625 "/></g></g></g><g fill="#e3a72f" fill-opacity="1"><g transform="translate(188.759231, 303.338534)"><g><path d="M 20.546875 0.53125 C 16.734375 0.53125 13.394531 -0.28125 10.53125 -1.90625 C 7.675781 -3.539062 5.476562 -5.851562 3.9375 -8.84375 C 2.394531 -11.84375 1.625 -15.359375 1.625 -19.390625 C 1.625 -23.421875 2.40625 -26.953125 3.96875 -29.984375 C 5.53125 -33.015625 7.738281 -35.363281 10.59375 -37.03125 C 13.445312 -38.695312 16.765625 -39.53125 20.546875 -39.53125 C 24.296875 -39.53125 27.585938 -38.695312 30.421875 -37.03125 C 33.265625 -35.363281 35.46875 -33.015625 37.03125 -29.984375 C 38.59375 -26.953125 39.375 -23.421875 39.375 -19.390625 C 39.375 -15.398438 38.601562 -11.894531 37.0625 -8.875 C 35.519531 -5.863281 33.328125 -3.539062 30.484375 -1.90625 C 27.648438 -0.28125 24.335938 0.53125 20.546875 0.53125 Z M 20.546875 -7.671875 C 22.085938 -7.671875 23.3125 -8.046875 24.21875 -8.796875 C 25.132812 -9.554688 25.800781 -10.773438 26.21875 -12.453125 C 26.644531 -14.140625 26.859375 -16.398438 26.859375 -19.234375 C 26.859375 -23.578125 26.367188 -26.695312 25.390625 -28.59375 C 24.410156 -30.488281 22.796875 -31.4375 20.546875 -31.4375 C 18.273438 -31.4375 16.640625 -30.488281 15.640625 -28.59375 C 14.640625 -26.695312 14.140625 -23.578125 14.140625 -19.234375 C 14.140625 -16.398438 14.347656 -14.140625 14.765625 -12.453125 C 15.191406 -10.773438 15.867188 -9.554688 16.796875 -8.796875 C 17.722656 -8.046875 18.972656 -7.671875 20.546875 -7.671875 Z M 20.546875 -7.671875 "/></g></g></g><g fill="#e3a72f" fill-opacity="1"><g transform="translate(229.758767, 303.338534)"><g><path d="M 2.734375 -37.796875 C 2.734375 -38.179688 2.820312 -38.476562 3 -38.6875 C 3.175781 -38.894531 3.421875 -39 3.734375 -39 L 31.75 -39 C 32.375 -39 32.6875 -38.628906 32.6875 -37.890625 L 32.640625 -31.796875 C 32.640625 -30.847656 32.203125 -30.375 31.328125 -30.375 L 15.875 -30.375 C 15.070312 -30.375 14.671875 -30.039062 14.671875 -29.375 L 14.671875 -24.4375 C 14.671875 -23.738281 14.984375 -23.390625 15.609375 -23.390625 L 25.234375 -23.390625 C 25.929688 -23.390625 26.28125 -23.039062 26.28125 -22.34375 L 26.28125 -15.921875 C 26.28125 -15.328125 25.960938 -15.03125 25.328125 -15.03125 L 15.5 -15.03125 C 15.257812 -15.03125 15.0625 -14.957031 14.90625 -14.8125 C 14.75 -14.675781 14.671875 -14.488281 14.671875 -14.25 L 14.671875 -1.53125 C 14.671875 -0.96875 14.53125 -0.570312 14.25 -0.34375 C 13.96875 -0.113281 13.53125 0 12.9375 0 L 4.15625 0 C 3.625 0 3.253906 -0.101562 3.046875 -0.3125 C 2.835938 -0.519531 2.734375 -0.851562 2.734375 -1.3125 Z M 2.734375 -37.796875 "/></g></g></g><g fill="#e3a72f" fill-opacity="1"><g transform="translate(263.925055, 303.338534)"><g><path d="M 13.71875 -39 C 14.351562 -39 14.671875 -38.628906 14.671875 -37.890625 L 14.671875 -1.53125 C 14.671875 -0.96875 14.53125 -0.570312 14.25 -0.34375 C 13.96875 -0.113281 13.53125 0 12.9375 0 L 4.15625 0 C 3.625 0 3.253906 -0.101562 3.046875 -0.3125 C 2.835938 -0.519531 2.734375 -0.851562 2.734375 -1.3125 L 2.734375 -37.796875 C 2.734375 -38.179688 2.820312 -38.476562 3 -38.6875 C 3.175781 -38.894531 3.421875 -39 3.734375 -39 Z M 13.71875 -39 "/></g></g></g><g fill="#e3a72f" fill-opacity="1"><g transform="translate(281.323572, 303.338534)"><g><path d="M 37.796875 -2.6875 C 38.285156 -1.945312 38.53125 -1.347656 38.53125 -0.890625 C 38.53125 -0.296875 38.039062 0 37.0625 0 L 27.59375 0 C 26.507812 0 25.773438 -0.347656 25.390625 -1.046875 L 19.609375 -10.9375 C 19.285156 -11.457031 19.039062 -11.71875 18.875 -11.71875 C 18.65625 -11.71875 18.410156 -11.472656 18.140625 -10.984375 L 12.453125 -1.046875 C 12.066406 -0.347656 11.316406 0 10.203125 0 L 2.734375 0 C 1.753906 0 1.265625 -0.28125 1.265625 -0.84375 C 1.265625 -1.226562 1.523438 -1.84375 2.046875 -2.6875 L 12.40625 -18.71875 C 12.644531 -19.0625 12.765625 -19.375 12.765625 -19.65625 C 12.765625 -19.90625 12.644531 -20.222656 12.40625 -20.609375 L 1.78125 -37.15625 C 1.613281 -37.375 1.53125 -37.675781 1.53125 -38.0625 C 1.53125 -38.6875 1.894531 -39 2.625 -39 L 12.5625 -39 C 13.125 -39 13.5625 -38.910156 13.875 -38.734375 C 14.1875 -38.554688 14.453125 -38.273438 14.671875 -37.890625 L 19.453125 -29.4375 C 19.617188 -29.15625 19.8125 -29.015625 20.03125 -29.015625 C 20.238281 -29.015625 20.429688 -29.15625 20.609375 -29.4375 L 25.390625 -37.890625 C 25.597656 -38.273438 25.847656 -38.554688 26.140625 -38.734375 C 26.441406 -38.910156 26.875 -39 27.4375 -39 L 35.578125 -39 C 36.285156 -39 36.640625 -38.738281 36.640625 -38.21875 C 36.640625 -37.96875 36.515625 -37.648438 36.265625 -37.265625 L 26.328125 -22.03125 C 26.117188 -21.707031 26.015625 -21.425781 26.015625 -21.1875 C 26.015625 -20.9375 26.15625 -20.582031 26.4375 -20.125 Z M 37.796875 -2.6875 "/></g></g></g><g fill="#072349" fill-opacity="0.4"><g transform="translate(58.661369, 325.6855)"><g><path d="M 5.554688 -9.90625 L 1.011719 -9.90625 L 1.011719 0 L 2.265625 0 L 2.265625 -4.109375 L 5.496094 -4.109375 C 7.6875 -4.109375 8.550781 -5.4375 8.550781 -7.015625 C 8.550781 -8.609375 7.6875 -9.90625 5.554688 -9.90625 Z M 5.242188 -5.109375 L 2.265625 -5.109375 L 2.265625 -8.90625 L 5.289062 -8.90625 C 6.71875 -8.90625 7.253906 -8.191406 7.253906 -7.015625 C 7.253906 -5.882812 6.71875 -5.109375 5.242188 -5.109375 Z M 5.242188 -5.109375 "/></g></g></g><g fill="#072349" fill-opacity="0.4"><g transform="translate(71.232377, 325.6855)"><g><path d="M 5.75 0.253906 C 9.191406 0.253906 10.695312 -1.980469 10.695312 -4.960938 C 10.695312 -7.894531 9.191406 -10.175781 5.75 -10.175781 C 2.308594 -10.175781 0.820312 -7.910156 0.820312 -4.960938 C 0.820312 -1.964844 2.308594 0.253906 5.75 0.253906 Z M 2.113281 -4.960938 C 2.113281 -7.746094 3.21875 -9.144531 5.75 -9.144531 C 8.28125 -9.144531 9.398438 -7.746094 9.398438 -4.960938 C 9.398438 -2.175781 8.28125 -0.773438 5.75 -0.773438 C 3.21875 -0.773438 2.113281 -2.175781 2.113281 -4.960938 Z M 2.113281 -4.960938 "/></g></g></g><g fill="#072349" fill-opacity="0.4"><g transform="translate(86.141727, 325.6855)"><g><path d="M 12.914062 -9.90625 L 10.828125 -0.789062 L 8.417969 -9.90625 L 6.480469 -9.90625 L 4.066406 -0.789062 L 1.980469 -9.90625 L 0.730469 -9.90625 L 2.992188 0 L 5.078125 0 L 7.449219 -8.96875 L 9.800781 0 L 11.886719 0 L 14.152344 -9.90625 Z M 12.914062 -9.90625 "/></g></g></g><g fill="#072349" fill-opacity="0.4"><g transform="translate(104.417095, 325.6855)"><g><path d="M 2.25 -0.996094 L 2.25 -4.601562 L 7.894531 -4.601562 L 7.894531 -5.585938 L 2.25 -5.585938 L 2.25 -8.90625 L 8.339844 -8.90625 L 8.339844 -9.90625 L 1.011719 -9.90625 L 1.011719 0 L 8.386719 0 L 8.386719 -0.996094 Z M 2.25 -0.996094 "/></g></g></g><g fill="#072349" fill-opacity="0.4"><g transform="translate(117.137052, 325.6855)"><g><path d="M 8.355469 -2.621094 C 8.355469 -4.082031 7.6875 -4.527344 6.746094 -4.796875 C 7.851562 -5.050781 8.667969 -5.972656 8.667969 -7.300781 C 8.667969 -8.894531 7.671875 -9.90625 5.628906 -9.90625 L 1.011719 -9.90625 L 1.011719 0 L 2.25 0 L 2.25 -4.4375 L 5.035156 -4.4375 C 6.40625 -4.4375 7.164062 -3.859375 7.164062 -2.441406 L 7.164062 -1.535156 C 7.164062 -0.820312 7.238281 -0.328125 7.34375 0 L 8.550781 0 C 8.460938 -0.371094 8.355469 -0.847656 8.355469 -1.578125 Z M 5.480469 -5.363281 L 2.25 -5.363281 L 2.25 -8.90625 L 5.496094 -8.90625 C 6.792969 -8.90625 7.375 -8.339844 7.375 -7.195312 C 7.375 -6.0625 6.867188 -5.363281 5.480469 -5.363281 Z M 5.480469 -5.363281 "/></g></g></g><g fill="#072349" fill-opacity="0.4"><g transform="translate(130.169786, 325.6855)"><g><path d="M 2.25 -0.996094 L 2.25 -4.601562 L 7.894531 -4.601562 L 7.894531 -5.585938 L 2.25 -5.585938 L 2.25 -8.90625 L 8.339844 -8.90625 L 8.339844 -9.90625 L 1.011719 -9.90625 L 1.011719 0 L 8.386719 0 L 8.386719 -0.996094 Z M 2.25 -0.996094 "/></g></g></g><g fill="#072349" fill-opacity="0.4"><g transform="translate(142.889748, 325.6855)"><g><path d="M 5.125 -9.90625 L 1.011719 -9.90625 L 1.011719 0 L 5.125 0 C 8.371094 0 9.742188 -2.25 9.742188 -4.976562 C 9.742188 -7.671875 8.371094 -9.90625 5.125 -9.90625 Z M 4.902344 -0.996094 L 2.25 -0.996094 L 2.25 -8.90625 L 4.902344 -8.90625 C 7.550781 -8.90625 8.445312 -7.492188 8.445312 -4.976562 C 8.445312 -2.457031 7.539062 -0.996094 4.902344 -0.996094 Z M 4.902344 -0.996094 "/></g></g></g><g fill="#072349" fill-opacity="0.4"><g transform="translate(156.771427, 325.6855)"><g/></g></g><g fill="#072349" fill-opacity="0.4"><g transform="translate(163.518935, 325.6855)"><g><path d="M 6.867188 -5.125 C 7.863281 -5.304688 8.730469 -6.019531 8.730469 -7.449219 C 8.730469 -8.820312 8 -9.90625 5.882812 -9.90625 L 1.011719 -9.90625 L 1.011719 0 L 5.855469 0 C 7.910156 0 8.894531 -1.042969 8.894531 -2.667969 C 8.894531 -4.230469 7.953125 -4.988281 6.867188 -5.125 Z M 5.628906 -8.90625 C 7.015625 -8.90625 7.433594 -8.386719 7.433594 -7.269531 C 7.433594 -6.183594 6.867188 -5.601562 5.46875 -5.601562 L 2.25 -5.601562 L 2.25 -8.90625 Z M 5.734375 -0.996094 L 2.25 -0.996094 L 2.25 -4.664062 L 5.496094 -4.664062 C 6.984375 -4.664062 7.597656 -3.976562 7.597656 -2.800781 C 7.597656 -1.742188 7.121094 -0.996094 5.734375 -0.996094 Z M 5.734375 -0.996094 "/></g></g></g><g fill="#072349" fill-opacity="0.4"><g transform="translate(176.596331, 325.6855)"><g><path d="M 7.714844 -9.90625 L 5.453125 -5.808594 C 5.226562 -5.378906 4.988281 -4.960938 4.765625 -4.542969 C 4.527344 -4.960938 4.304688 -5.378906 4.082031 -5.808594 L 1.832031 -9.90625 L 0.417969 -9.90625 L 4.140625 -3.472656 L 4.140625 0 L 5.378906 0 L 5.378906 -3.472656 L 9.101562 -9.90625 Z M 7.714844 -9.90625 "/></g></g></g><g fill="#072349" fill-opacity="0.4"><g transform="translate(189.509913, 325.6855)"><g/></g></g><g fill="#072349" fill-opacity="0.4"><g transform="translate(196.25742, 325.6855)"><g><path d="M 8.832031 -9.90625 L 0.492188 -9.90625 L 0.492188 -8.90625 L 4.066406 -8.90625 L 4.066406 0.015625 L 5.289062 0.015625 L 5.289062 -8.90625 L 8.832031 -8.90625 Z M 8.832031 -9.90625 "/></g></g></g><g fill="#072349" fill-opacity="0.4"><g transform="translate(208.992264, 325.6855)"><g><path d="M 5.765625 0.253906 C 8.9375 0.253906 10.351562 -1.429688 10.515625 -3.949219 L 9.25 -3.949219 C 9.117188 -1.9375 7.984375 -0.773438 5.734375 -0.773438 C 3.261719 -0.773438 2.113281 -2.191406 2.113281 -4.960938 C 2.113281 -7.730469 3.292969 -9.144531 5.765625 -9.144531 C 7.910156 -9.144531 9.011719 -8.148438 9.21875 -6.210938 L 10.472656 -6.210938 C 10.234375 -8.667969 8.847656 -10.175781 5.792969 -10.175781 C 2.382812 -10.175781 0.820312 -7.941406 0.820312 -4.960938 C 0.820312 -1.953125 2.355469 0.253906 5.765625 0.253906 Z M 5.765625 0.253906 "/></g></g></g><g fill="#072349" fill-opacity="0.4"><g transform="translate(223.648422, 325.6855)"><g/></g></g><g fill="#072349" fill-opacity="0.4"><g transform="translate(230.395938, 325.6855)"><g><path d="M 11.84375 -9.90625 L 9.710938 -9.90625 L 6.449219 -1.117188 L 3.171875 -9.90625 L 1.011719 -9.90625 L 1.011719 0 L 2.25 0 L 2.25 -8.980469 L 5.601562 0 L 7.269531 0 L 10.605469 -8.980469 L 10.605469 0 L 11.84375 0 Z M 11.84375 -9.90625 "/></g></g></g><g fill="#072349" fill-opacity="0.4"><g transform="translate(246.645739, 325.6855)"><g><path d="M 5.75 0.253906 C 9.191406 0.253906 10.695312 -1.980469 10.695312 -4.960938 C 10.695312 -7.894531 9.191406 -10.175781 5.75 -10.175781 C 2.308594 -10.175781 0.820312 -7.910156 0.820312 -4.960938 C 0.820312 -1.964844 2.308594 0.253906 5.75 0.253906 Z M 2.113281 -4.960938 C 2.113281 -7.746094 3.21875 -9.144531 5.75 -9.144531 C 8.28125 -9.144531 9.398438 -7.746094 9.398438 -4.960938 C 9.398438 -2.175781 8.28125 -0.773438 5.75 -0.773438 C 3.21875 -0.773438 2.113281 -2.175781 2.113281 -4.960938 Z M 2.113281 -4.960938 "/></g></g></g><g fill="#072349" fill-opacity="0.4"><g transform="translate(261.555094, 325.6855)"><g><path d="M 6.867188 -5.125 C 7.863281 -5.304688 8.730469 -6.019531 8.730469 -7.449219 C 8.730469 -8.820312 8 -9.90625 5.882812 -9.90625 L 1.011719 -9.90625 L 1.011719 0 L 5.855469 0 C 7.910156 0 8.894531 -1.042969 8.894531 -2.667969 C 8.894531 -4.230469 7.953125 -4.988281 6.867188 -5.125 Z M 5.628906 -8.90625 C 7.015625 -8.90625 7.433594 -8.386719 7.433594 -7.269531 C 7.433594 -6.183594 6.867188 -5.601562 5.46875 -5.601562 L 2.25 -5.601562 L 2.25 -8.90625 Z M 5.734375 -0.996094 L 2.25 -0.996094 L 2.25 -4.664062 L 5.496094 -4.664062 C 6.984375 -4.664062 7.597656 -3.976562 7.597656 -2.800781 C 7.597656 -1.742188 7.121094 -0.996094 5.734375 -0.996094 Z M 5.734375 -0.996094 "/></g></g></g><g fill="#072349" fill-opacity="0.4"><g transform="translate(274.632498, 325.6855)"><g><path d="M 6.421875 -8.90625 L 6.421875 -9.90625 L 0.996094 -9.90625 L 0.996094 -8.90625 L 3.097656 -8.90625 L 3.097656 -0.996094 L 0.996094 -0.996094 L 0.996094 0 L 6.421875 0 L 6.421875 -0.996094 L 4.320312 -0.996094 L 4.320312 -8.90625 Z M 6.421875 -8.90625 "/></g></g></g><g fill="#072349" fill-opacity="0.4"><g transform="translate(285.446043, 325.6855)"><g><path d="M 2.25 -0.996094 L 2.25 -9.90625 L 1.011719 -9.90625 L 1.011719 0 L 7.433594 0 L 7.433594 -0.996094 Z M 2.25 -0.996094 "/></g></g></g><g fill="#072349" fill-opacity="0.4"><g transform="translate(296.602141, 325.6855)"><g><path d="M 2.25 -0.996094 L 2.25 -4.601562 L 7.894531 -4.601562 L 7.894531 -5.585938 L 2.25 -5.585938 L 2.25 -8.90625 L 8.339844 -8.90625 L 8.339844 -9.90625 L 1.011719 -9.90625 L 1.011719 0 L 8.386719 0 L 8.386719 -0.996094 Z M 2.25 -0.996094 "/></g></g></g><g fill="#072349" fill-opacity="0.4"><g transform="translate(309.322103, 325.6855)"><g><path d="M 0.773438 -3.394531 C 0.773438 -1.445312 1.875 0.222656 5.09375 0.222656 C 7.851562 0.222656 9.011719 -0.863281 9.011719 -2.753906 C 9.011719 -4.351562 8.074219 -5.125 6.316406 -5.40625 L 3.84375 -5.78125 C 2.726562 -5.957031 2.355469 -6.570312 2.355469 -7.34375 C 2.355469 -8.445312 3.097656 -9.207031 4.855469 -9.207031 C 6.71875 -9.207031 7.550781 -8.296875 7.6875 -6.957031 L 8.878906 -6.957031 C 8.742188 -8.863281 7.464844 -10.175781 4.871094 -10.175781 C 2.308594 -10.175781 1.101562 -8.90625 1.101562 -7.3125 C 1.101562 -5.824219 1.890625 -4.976562 3.621094 -4.722656 L 5.957031 -4.363281 C 7.210938 -4.15625 7.761719 -3.632812 7.761719 -2.59375 C 7.761719 -1.445312 7.136719 -0.746094 5.09375 -0.746094 C 2.800781 -0.746094 2.011719 -1.863281 1.980469 -3.394531 Z M 0.773438 -3.394531 "/></g></g></g><g fill="#072349" fill-opacity="1"><g transform="translate(58.003034, 325.027171)"><g><path d="M 5.554688 -9.90625 L 1.011719 -9.90625 L 1.011719 0 L 2.265625 0 L 2.265625 -4.109375 L 5.496094 -4.109375 C 7.6875 -4.109375 8.550781 -5.4375 8.550781 -7.015625 C 8.550781 -8.609375 7.6875 -9.90625 5.554688 -9.90625 Z M 5.242188 -5.109375 L 2.265625 -5.109375 L 2.265625 -8.90625 L 5.289062 -8.90625 C 6.71875 -8.90625 7.253906 -8.191406 7.253906 -7.015625 C 7.253906 -5.882812 6.71875 -5.109375 5.242188 -5.109375 Z M 5.242188 -5.109375 "/></g></g></g><g fill="#072349" fill-opacity="1"><g transform="translate(70.574042, 325.027171)"><g><path d="M 5.75 0.253906 C 9.191406 0.253906 10.695312 -1.980469 10.695312 -4.960938 C 10.695312 -7.894531 9.191406 -10.175781 5.75 -10.175781 C 2.308594 -10.175781 0.820312 -7.910156 0.820312 -4.960938 C 0.820312 -1.964844 2.308594 0.253906 5.75 0.253906 Z M 2.113281 -4.960938 C 2.113281 -7.746094 3.21875 -9.144531 5.75 -9.144531 C 8.28125 -9.144531 9.398438 -7.746094 9.398438 -4.960938 C 9.398438 -2.175781 8.28125 -0.773438 5.75 -0.773438 C 3.21875 -0.773438 2.113281 -2.175781 2.113281 -4.960938 Z M 2.113281 -4.960938 "/></g></g></g><g fill="#072349" fill-opacity="1"><g transform="translate(85.483392, 325.027171)"><g><path d="M 12.914062 -9.90625 L 10.828125 -0.789062 L 8.417969 -9.90625 L 6.480469 -9.90625 L 4.066406 -0.789062 L 1.980469 -9.90625 L 0.730469 -9.90625 L 2.992188 0 L 5.078125 0 L 7.449219 -8.96875 L 9.800781 0 L 11.886719 0 L 14.152344 -9.90625 Z M 12.914062 -9.90625 "/></g></g></g><g fill="#072349" fill-opacity="1"><g transform="translate(103.75876, 325.027171)"><g><path d="M 2.25 -0.996094 L 2.25 -4.601562 L 7.894531 -4.601562 L 7.894531 -5.585938 L 2.25 -5.585938 L 2.25 -8.90625 L 8.339844 -8.90625 L 8.339844 -9.90625 L 1.011719 -9.90625 L 1.011719 0 L 8.386719 0 L 8.386719 -0.996094 Z M 2.25 -0.996094 "/></g></g></g><g fill="#072349" fill-opacity="1"><g transform="translate(116.478718, 325.027171)"><g><path d="M 8.355469 -2.621094 C 8.355469 -4.082031 7.6875 -4.527344 6.746094 -4.796875 C 7.851562 -5.050781 8.667969 -5.972656 8.667969 -7.300781 C 8.667969 -8.894531 7.671875 -9.90625 5.628906 -9.90625 L 1.011719 -9.90625 L 1.011719 0 L 2.25 0 L 2.25 -4.4375 L 5.035156 -4.4375 C 6.40625 -4.4375 7.164062 -3.859375 7.164062 -2.441406 L 7.164062 -1.535156 C 7.164062 -0.820312 7.238281 -0.328125 7.34375 0 L 8.550781 0 C 8.460938 -0.371094 8.355469 -0.847656 8.355469 -1.578125 Z M 5.480469 -5.363281 L 2.25 -5.363281 L 2.25 -8.90625 L 5.496094 -8.90625 C 6.792969 -8.90625 7.375 -8.339844 7.375 -7.195312 C 7.375 -6.0625 6.867188 -5.363281 5.480469 -5.363281 Z M 5.480469 -5.363281 "/></g></g></g><g fill="#072349" fill-opacity="1"><g transform="translate(129.511452, 325.027171)"><g><path d="M 2.25 -0.996094 L 2.25 -4.601562 L 7.894531 -4.601562 L 7.894531 -5.585938 L 2.25 -5.585938 L 2.25 -8.90625 L 8.339844 -8.90625 L 8.339844 -9.90625 L 1.011719 -9.90625 L 1.011719 0 L 8.386719 0 L 8.386719 -0.996094 Z M 2.25 -0.996094 "/></g></g></g><g fill="#072349" fill-opacity="1"><g transform="translate(142.231413, 325.027171)"><g><path d="M 5.125 -9.90625 L 1.011719 -9.90625 L 1.011719 0 L 5.125 0 C 8.371094 0 9.742188 -2.25 9.742188 -4.976562 C 9.742188 -7.671875 8.371094 -9.90625 5.125 -9.90625 Z M 4.902344 -0.996094 L 2.25 -0.996094 L 2.25 -8.90625 L 4.902344 -8.90625 C 7.550781 -8.90625 8.445312 -7.492188 8.445312 -4.976562 C 8.445312 -2.457031 7.539062 -0.996094 4.902344 -0.996094 Z M 4.902344 -0.996094 "/></g></g></g><g fill="#072349" fill-opacity="1"><g transform="translate(156.113093, 325.027171)"><g/></g></g><g fill="#072349" fill-opacity="1"><g transform="translate(162.860601, 325.027171)"><g><path d="M 6.867188 -5.125 C 7.863281 -5.304688 8.730469 -6.019531 8.730469 -7.449219 C 8.730469 -8.820312 8 -9.90625 5.882812 -9.90625 L 1.011719 -9.90625 L 1.011719 0 L 5.855469 0 C 7.910156 0 8.894531 -1.042969 8.894531 -2.667969 C 8.894531 -4.230469 7.953125 -4.988281 6.867188 -5.125 Z M 5.628906 -8.90625 C 7.015625 -8.90625 7.433594 -8.386719 7.433594 -7.269531 C 7.433594 -6.183594 6.867188 -5.601562 5.46875 -5.601562 L 2.25 -5.601562 L 2.25 -8.90625 Z M 5.734375 -0.996094 L 2.25 -0.996094 L 2.25 -4.664062 L 5.496094 -4.664062 C 6.984375 -4.664062 7.597656 -3.976562 7.597656 -2.800781 C 7.597656 -1.742188 7.121094 -0.996094 5.734375 -0.996094 Z M 5.734375 -0.996094 "/></g></g></g><g fill="#072349" fill-opacity="1"><g transform="translate(175.937997, 325.027171)"><g><path d="M 7.714844 -9.90625 L 5.453125 -5.808594 C 5.226562 -5.378906 4.988281 -4.960938 4.765625 -4.542969 C 4.527344 -4.960938 4.304688 -5.378906 4.082031 -5.808594 L 1.832031 -9.90625 L 0.417969 -9.90625 L 4.140625 -3.472656 L 4.140625 0 L 5.378906 0 L 5.378906 -3.472656 L 9.101562 -9.90625 Z M 7.714844 -9.90625 "/></g></g></g><g fill="#072349" fill-opacity="1"><g transform="translate(188.851578, 325.027171)"><g/></g></g><g fill="#072349" fill-opacity="1"><g transform="translate(195.599086, 325.027171)"><g><path d="M 8.832031 -9.90625 L 0.492188 -9.90625 L 0.492188 -8.90625 L 4.066406 -8.90625 L 4.066406 0.015625 L 5.289062 0.015625 L 5.289062 -8.90625 L 8.832031 -8.90625 Z M 8.832031 -9.90625 "/></g></g></g><g fill="#072349" fill-opacity="1"><g transform="translate(208.333929, 325.027171)"><g><path d="M 5.765625 0.253906 C 8.9375 0.253906 10.351562 -1.429688 10.515625 -3.949219 L 9.25 -3.949219 C 9.117188 -1.9375 7.984375 -0.773438 5.734375 -0.773438 C 3.261719 -0.773438 2.113281 -2.191406 2.113281 -4.960938 C 2.113281 -7.730469 3.292969 -9.144531 5.765625 -9.144531 C 7.910156 -9.144531 9.011719 -8.148438 9.21875 -6.210938 L 10.472656 -6.210938 C 10.234375 -8.667969 8.847656 -10.175781 5.792969 -10.175781 C 2.382812 -10.175781 0.820312 -7.941406 0.820312 -4.960938 C 0.820312 -1.953125 2.355469 0.253906 5.765625 0.253906 Z M 5.765625 0.253906 "/></g></g></g><g fill="#072349" fill-opacity="1"><g transform="translate(222.990087, 325.027171)"><g/></g></g><g fill="#072349" fill-opacity="1"><g transform="translate(229.737603, 325.027171)"><g><path d="M 11.84375 -9.90625 L 9.710938 -9.90625 L 6.449219 -1.117188 L 3.171875 -9.90625 L 1.011719 -9.90625 L 1.011719 0 L 2.25 0 L 2.25 -8.980469 L 5.601562 0 L 7.269531 0 L 10.605469 -8.980469 L 10.605469 0 L 11.84375 0 Z M 11.84375 -9.90625 "/></g></g></g><g fill="#072349" fill-opacity="1"><g transform="translate(245.987405, 325.027171)"><g><path d="M 5.75 0.253906 C 9.191406 0.253906 10.695312 -1.980469 10.695312 -4.960938 C 10.695312 -7.894531 9.191406 -10.175781 5.75 -10.175781 C 2.308594 -10.175781 0.820312 -7.910156 0.820312 -4.960938 C 0.820312 -1.964844 2.308594 0.253906 5.75 0.253906 Z M 2.113281 -4.960938 C 2.113281 -7.746094 3.21875 -9.144531 5.75 -9.144531 C 8.28125 -9.144531 9.398438 -7.746094 9.398438 -4.960938 C 9.398438 -2.175781 8.28125 -0.773438 5.75 -0.773438 C 3.21875 -0.773438 2.113281 -2.175781 2.113281 -4.960938 Z M 2.113281 -4.960938 "/></g></g></g><g fill="#072349" fill-opacity="1"><g transform="translate(260.896759, 325.027171)"><g><path d="M 6.867188 -5.125 C 7.863281 -5.304688 8.730469 -6.019531 8.730469 -7.449219 C 8.730469 -8.820312 8 -9.90625 5.882812 -9.90625 L 1.011719 -9.90625 L 1.011719 0 L 5.855469 0 C 7.910156 0 8.894531 -1.042969 8.894531 -2.667969 C 8.894531 -4.230469 7.953125 -4.988281 6.867188 -5.125 Z M 5.628906 -8.90625 C 7.015625 -8.90625 7.433594 -8.386719 7.433594 -7.269531 C 7.433594 -6.183594 6.867188 -5.601562 5.46875 -5.601562 L 2.25 -5.601562 L 2.25 -8.90625 Z M 5.734375 -0.996094 L 2.25 -0.996094 L 2.25 -4.664062 L 5.496094 -4.664062 C 6.984375 -4.664062 7.597656 -3.976562 7.597656 -2.800781 C 7.597656 -1.742188 7.121094 -0.996094 5.734375 -0.996094 Z M 5.734375 -0.996094 "/></g></g></g><g fill="#072349" fill-opacity="1"><g transform="translate(273.974164, 325.027171)"><g><path d="M 6.421875 -8.90625 L 6.421875 -9.90625 L 0.996094 -9.90625 L 0.996094 -8.90625 L 3.097656 -8.90625 L 3.097656 -0.996094 L 0.996094 -0.996094 L 0.996094 0 L 6.421875 0 L 6.421875 -0.996094 L 4.320312 -0.996094 L 4.320312 -8.90625 Z M 6.421875 -8.90625 "/></g></g></g><g fill="#072349" fill-opacity="1"><g transform="translate(284.787709, 325.027171)"><g><path d="M 2.25 -0.996094 L 2.25 -9.90625 L 1.011719 -9.90625 L 1.011719 0 L 7.433594 0 L 7.433594 -0.996094 Z M 2.25 -0.996094 "/></g></g></g><g fill="#072349" fill-opacity="1"><g transform="translate(295.943807, 325.027171)"><g><path d="M 2.25 -0.996094 L 2.25 -4.601562 L 7.894531 -4.601562 L 7.894531 -5.585938 L 2.25 -5.585938 L 2.25 -8.90625 L 8.339844 -8.90625 L 8.339844 -9.90625 L 1.011719 -9.90625 L 1.011719 0 L 8.386719 0 L 8.386719 -0.996094 Z M 2.25 -0.996094 "/></g></g></g><g fill="#072349" fill-opacity="1"><g transform="translate(308.663768, 325.027171)"><g><path d="M 0.773438 -3.394531 C 0.773438 -1.445312 1.875 0.222656 5.09375 0.222656 C 7.851562 0.222656 9.011719 -0.863281 9.011719 -2.753906 C 9.011719 -4.351562 8.074219 -5.125 6.316406 -5.40625 L 3.84375 -5.78125 C 2.726562 -5.957031 2.355469 -6.570312 2.355469 -7.34375 C 2.355469 -8.445312 3.097656 -9.207031 4.855469 -9.207031 C 6.71875 -9.207031 7.550781 -8.296875 7.6875 -6.957031 L 8.878906 -6.957031 C 8.742188 -8.863281 7.464844 -10.175781 4.871094 -10.175781 C 2.308594 -10.175781 1.101562 -8.90625 1.101562 -7.3125 C 1.101562 -5.824219 1.890625 -4.976562 3.621094 -4.722656 L 5.957031 -4.363281 C 7.210938 -4.15625 7.761719 -3.632812 7.761719 -2.59375 C 7.761719 -1.445312 7.136719 -0.746094 5.09375 -0.746094 C 2.800781 -0.746094 2.011719 -1.863281 1.980469 -3.394531 Z M 0.773438 -3.394531 "/></g></g></g></svg>