<svg xmlns="http://www.w3.org/2000/svg" xmlns:xlink="http://www.w3.org/1999/xlink" width="500" zoomAndPan="magnify" viewBox="0 0 375 112.499997" height="150" preserveAspectRatio="xMidYMid meet" version="1.0"><defs><g/><clipPath id="234fd087f8"><path d="M 0.828125 0 L 374.167969 0 L 374.167969 112.003906 L 0.828125 112.003906 Z M 0.828125 0 " clip-rule="nonzero"/></clipPath><clipPath id="c04c80b15d"><path d="M 33 103 L 84 103 L 84 107.257812 L 33 107.257812 Z M 33 103 " clip-rule="nonzero"/></clipPath><clipPath id="2c8d881fc4"><path d="M 12.03125 5 L 84 5 L 84 107 L 12.03125 107 Z M 12.03125 5 " clip-rule="nonzero"/></clipPath></defs><g clip-path="url(#234fd087f8)"><path fill="#ffffff" d="M 0.828125 0 L 374.171875 0 L 374.171875 112.003906 L 0.828125 112.003906 Z M 0.828125 0 " fill-opacity="1" fill-rule="nonzero"/><path fill="#ffffff" d="M 0.828125 0 L 374.171875 0 L 374.171875 112.003906 L 0.828125 112.003906 Z M 0.828125 0 " fill-opacity="1" fill-rule="nonzero"/></g><g clip-path="url(#c04c80b15d)"><path fill="#cccccc" d="M 58.335938 107.257812 C 72.210938 107.257812 83.539062 106.355469 83.539062 105.253906 C 83.539062 104.152344 72.210938 103.269531 58.335938 103.269531 C 44.460938 103.269531 33.132812 104.171875 33.132812 105.253906 C 33.132812 106.355469 44.441406 107.257812 58.335938 107.257812 Z M 58.335938 107.257812 " fill-opacity="1" fill-rule="evenodd"/></g><g clip-path="url(#2c8d881fc4)"><path fill="#000000" d="M 71.816406 29.222656 L 68.132812 32.269531 L 75.835938 70.773438 C 76.453125 73.898438 74.441406 76.984375 71.375 77.625 L 60.566406 79.847656 C 64.148438 81.511719 66.796875 84.835938 67.59375 88.84375 C 68.550781 93.671875 66.679688 98.421875 63.136719 101.285156 L 75.597656 98.722656 C 80.953125 97.621094 84.4375 92.269531 83.339844 86.839844 Z M 20.890625 12.773438 L 56.902344 5.339844 C 58.753906 4.960938 60.585938 5.140625 62.238281 5.742188 L 60.566406 9.667969 C 59.671875 9.386719 58.714844 9.328125 57.738281 9.527344 L 21.726562 16.960938 C 18.640625 17.601562 16.628906 20.667969 17.269531 23.8125 L 28.613281 80.53125 C 29.230469 83.65625 32.277344 85.699219 35.363281 85.058594 L 46.171875 82.835938 C 43.507812 85.800781 42.351562 89.886719 43.167969 93.894531 C 44.125 98.722656 47.6875 102.347656 52.046875 103.570312 L 39.5625 106.113281 C 34.210938 107.214844 28.953125 103.671875 27.859375 98.242188 L 13.148438 24.65625 C 12.050781 19.226562 15.554688 13.875 20.890625 12.773438 Z M 20.890625 12.773438 " fill-opacity="1" fill-rule="evenodd"/></g><path fill="#ff3131" d="M 54.453125 86.761719 C 56.566406 86.660156 58.476562 88.125 58.914062 90.265625 C 59.351562 92.429688 58.136719 94.535156 56.167969 95.277344 C 54.058594 95.375 52.144531 93.914062 51.707031 91.769531 C 51.269531 89.605469 52.464844 87.503906 54.453125 86.761719 Z M 49.320312 54.90625 C 53.140625 53.882812 56.347656 51.761719 59.074219 48.816406 C 57.222656 51.5 55.152344 54.046875 51.648438 55.628906 C 53.28125 64.300781 54.914062 72.976562 56.527344 81.652344 C 54.136719 72.738281 51.726562 63.820312 49.320312 54.90625 Z M 53.996094 33.691406 L 49.757812 35.652344 C 51.570312 39.199219 52.804688 44.628906 52.902344 48.535156 L 47.289062 51 L 41.175781 50.960938 C 39.761719 47.332031 38.808594 41.84375 39.125 37.855469 L 34.46875 37.738281 C 32.617188 41.742188 33.152344 50.339844 35.464844 55.988281 C 38.269531 57.371094 41.015625 58.351562 43.585938 58.574219 L 48.5625 83.457031 C 45.855469 85.859375 44.441406 89.644531 45.21875 93.492188 C 46.351562 99.183594 51.828125 102.867188 57.441406 101.707031 C 63.054688 100.542969 66.679688 94.996094 65.542969 89.304688 C 64.765625 85.457031 62.039062 82.535156 58.617188 81.390625 L 53.640625 56.507812 C 55.929688 55.285156 58.078125 53.304688 60.128906 50.898438 C 60.070312 44.769531 57.261719 36.636719 53.996094 33.691406 Z M 53.996094 33.691406 " fill-opacity="1" fill-rule="evenodd"/><path fill="#000000" d="M 65.144531 18.164062 L 64.867188 16.78125 L 60.964844 17.582031 L 61.242188 18.964844 C 60.824219 19.226562 60.46875 19.527344 60.128906 19.886719 L 58.855469 19.324219 L 57.28125 23.03125 L 58.554688 23.59375 C 58.535156 23.933594 58.554688 24.253906 58.597656 24.59375 L 57.363281 25.253906 L 59.191406 28.839844 L 60.425781 28.179688 C 60.667969 28.402344 60.945312 28.601562 61.222656 28.78125 L 60.945312 30.164062 L 64.828125 30.984375 L 65.105469 29.601562 C 65.207031 29.582031 65.285156 29.5625 65.382812 29.5625 C 65.625 29.523438 65.863281 29.441406 66.082031 29.382812 L 66.957031 30.484375 L 70.042969 27.941406 L 69.167969 26.839844 C 69.324219 26.558594 69.484375 26.238281 69.605469 25.9375 L 71 25.9375 L 71 21.910156 L 69.605469 21.910156 C 69.484375 21.589844 69.347656 21.289062 69.1875 20.988281 L 70.0625 19.886719 L 66.996094 17.320312 L 66.121094 18.425781 C 65.800781 18.304688 65.484375 18.222656 65.144531 18.164062 Z M 63.671875 20.96875 C 65.324219 20.628906 66.9375 21.710938 67.277344 23.390625 C 67.613281 25.074219 66.539062 26.71875 64.886719 27.058594 C 63.234375 27.398438 61.621094 26.316406 61.285156 24.632812 C 60.945312 22.929688 62.019531 21.308594 63.671875 20.96875 Z M 63.671875 20.96875 " fill-opacity="1" fill-rule="evenodd"/><path fill="#ff3131" d="M 67.914062 6.542969 L 67.734375 5.660156 L 65.226562 6.183594 L 65.402344 7.0625 C 65.144531 7.226562 64.90625 7.425781 64.6875 7.644531 L 63.871094 7.285156 L 62.855469 9.667969 L 63.671875 10.03125 C 63.652344 10.25 63.671875 10.449219 63.691406 10.671875 L 62.894531 11.089844 L 64.070312 13.394531 L 64.867188 12.972656 C 65.027344 13.113281 65.207031 13.253906 65.382812 13.375 L 65.207031 14.257812 L 67.714844 14.777344 L 67.894531 13.894531 C 67.953125 13.894531 68.011719 13.875 68.070312 13.855469 C 68.230469 13.816406 68.371094 13.777344 68.511719 13.734375 L 69.066406 14.4375 L 71.058594 12.792969 L 70.5 12.09375 C 70.601562 11.914062 70.699219 11.710938 70.777344 11.511719 L 71.675781 11.511719 L 71.675781 8.925781 L 70.777344 8.925781 C 70.699219 8.726562 70.621094 8.527344 70.5 8.347656 L 71.058594 7.644531 L 69.085938 6.003906 L 68.53125 6.703125 C 68.351562 6.625 68.132812 6.582031 67.914062 6.542969 Z M 66.976562 8.347656 C 68.03125 8.125 69.066406 8.828125 69.285156 9.910156 C 69.503906 10.992188 68.808594 12.03125 67.753906 12.253906 C 66.699219 12.472656 65.664062 11.773438 65.445312 10.691406 C 65.226562 9.609375 65.902344 8.566406 66.976562 8.347656 Z M 66.976562 8.347656 " fill-opacity="1" fill-rule="evenodd"/><g fill="#000000" fill-opacity="1"><g transform="translate(84.762252, 69.484785)"><g><path d="M 3.328125 -36.46875 L 32.734375 -36.46875 L 31.3125 -29.09375 L 22.890625 -29.09375 L 17.28125 0 L 8.71875 0 L 14.3125 -29.09375 L 7.046875 -29.09375 Z M 3.328125 -36.46875 "/></g></g></g><g fill="#000000" fill-opacity="1"><g transform="translate(113.023581, 69.484785)"><g><path d="M 23.984375 -36.46875 L 30.515625 -36.46875 L 27.71875 -22.015625 L 24.171875 -29.09375 L 22.5625 -29.09375 C 21.394531 -29.09375 20.144531 -28.738281 18.8125 -28.03125 C 17.488281 -27.320312 16.25 -26.316406 15.09375 -25.015625 C 13.945312 -23.722656 13.003906 -22.195312 12.265625 -20.4375 C 11.523438 -18.6875 11.15625 -16.757812 11.15625 -14.65625 C 11.15625 -12.863281 11.492188 -11.429688 12.171875 -10.359375 C 12.847656 -9.296875 13.734375 -8.53125 14.828125 -8.0625 C 15.921875 -7.601562 17.09375 -7.375 18.34375 -7.375 L 24.90625 -7.375 L 23.484375 0 L 17.796875 0 C 16.523438 0 15.207031 -0.140625 13.84375 -0.421875 C 12.488281 -0.703125 11.175781 -1.164062 9.90625 -1.8125 C 8.632812 -2.46875 7.488281 -3.34375 6.46875 -4.4375 C 5.457031 -5.53125 4.644531 -6.882812 4.03125 -8.5 C 3.425781 -10.113281 3.125 -12.050781 3.125 -14.3125 C 3.125 -16.175781 3.40625 -18.128906 3.96875 -20.171875 C 4.539062 -22.222656 5.382812 -24.210938 6.5 -26.140625 C 7.625 -28.078125 9.023438 -29.820312 10.703125 -31.375 C 12.378906 -32.925781 14.328125 -34.160156 16.546875 -35.078125 C 18.765625 -36.003906 21.242188 -36.46875 23.984375 -36.46875 Z M 23.984375 -36.46875 "/></g></g></g><g fill="#000000" fill-opacity="1"><g transform="translate(139.048402, 69.484785)"><g/></g></g><g fill="#000000" fill-opacity="1"><g transform="translate(151.959153, 69.484785)"><g><path d="M 3.359375 -36.46875 L 17.765625 -36.46875 L 20.40625 -27.21875 L 26.609375 -36.46875 L 37.359375 -36.46875 L 30.3125 0 L 21.734375 0 L 26.171875 -23 L 16.953125 -9.25 L 13.03125 -23 L 8.59375 0 L 0 0 L 6.015625 -31.125 Z M 3.359375 -36.46875 "/></g></g></g><g fill="#000000" fill-opacity="1"><g transform="translate(184.820581, 69.484785)"><g><path d="M 8.84375 -37.3125 L 24.546875 -37.3125 C 27.160156 -37.3125 29.421875 -36.90625 31.328125 -36.09375 C 33.242188 -35.28125 34.820312 -34.164062 36.0625 -32.75 C 37.3125 -31.332031 38.238281 -29.710938 38.84375 -27.890625 C 39.457031 -26.066406 39.765625 -24.140625 39.765625 -22.109375 C 39.765625 -19.972656 39.4375 -17.8125 38.78125 -15.625 C 38.132812 -13.4375 37.179688 -11.351562 35.921875 -9.375 C 34.660156 -7.40625 33.109375 -5.644531 31.265625 -4.09375 C 29.429688 -2.550781 27.320312 -1.328125 24.9375 -0.421875 C 22.5625 0.484375 19.929688 0.9375 17.046875 0.9375 C 14.679688 0.9375 12.625 0.53125 10.875 -0.28125 C 9.132812 -1.09375 7.691406 -2.195312 6.546875 -3.59375 C 5.398438 -4.988281 4.550781 -6.59375 4 -8.40625 C 3.445312 -10.21875 3.171875 -12.132812 3.171875 -14.15625 C 3.171875 -17.394531 3.859375 -20.644531 5.234375 -23.90625 C 6.617188 -27.175781 8.644531 -30 11.3125 -32.375 Z M 24.421875 -30.265625 C 22.578125 -30.265625 20.867188 -29.769531 19.296875 -28.78125 C 17.734375 -27.789062 16.378906 -26.503906 15.234375 -24.921875 C 14.085938 -23.335938 13.203125 -21.613281 12.578125 -19.75 C 11.953125 -17.882812 11.640625 -16.097656 11.640625 -14.390625 C 11.640625 -12.941406 11.878906 -11.628906 12.359375 -10.453125 C 12.847656 -9.273438 13.609375 -8.335938 14.640625 -7.640625 C 15.671875 -6.953125 17.015625 -6.609375 18.671875 -6.609375 C 20.554688 -6.609375 22.269531 -7.09375 23.8125 -8.0625 C 25.351562 -9.039062 26.679688 -10.3125 27.796875 -11.875 C 28.921875 -13.445312 29.78125 -15.148438 30.375 -16.984375 C 30.976562 -18.828125 31.28125 -20.601562 31.28125 -22.3125 C 31.28125 -23.769531 31.039062 -25.097656 30.5625 -26.296875 C 30.09375 -27.503906 29.351562 -28.46875 28.34375 -29.1875 C 27.34375 -29.90625 26.035156 -30.265625 24.421875 -30.265625 Z M 24.421875 -30.265625 "/></g></g></g><g fill="#000000" fill-opacity="1"><g transform="translate(223.247856, 69.484785)"><g><path d="M 3.328125 -36.46875 L 21.65625 -36.46875 C 23.550781 -36.46875 25.316406 -36.128906 26.953125 -35.453125 C 28.597656 -34.773438 29.921875 -33.78125 30.921875 -32.46875 C 31.921875 -31.15625 32.421875 -29.550781 32.421875 -27.65625 C 32.421875 -26.332031 32.203125 -25.15625 31.765625 -24.125 C 31.328125 -23.101562 30.789062 -22.21875 30.15625 -21.46875 C 29.519531 -20.726562 28.882812 -20.113281 28.25 -19.625 C 27.613281 -19.144531 27.078125 -18.789062 26.640625 -18.5625 C 26.210938 -18.332031 26 -18.21875 26 -18.21875 C 26 -18.21875 26.164062 -18.085938 26.5 -17.828125 C 26.84375 -17.566406 27.226562 -17.171875 27.65625 -16.640625 C 28.09375 -16.117188 28.476562 -15.453125 28.8125 -14.640625 C 29.15625 -13.835938 29.328125 -12.894531 29.328125 -11.8125 C 29.328125 -9.476562 28.765625 -7.425781 27.640625 -5.65625 C 26.515625 -3.882812 24.957031 -2.5 22.96875 -1.5 C 20.988281 -0.5 18.710938 0 16.140625 0 L 0 0 L 6 -31.125 Z M 14.1875 -29.09375 L 12.8125 -22.015625 L 18.859375 -22.015625 C 19.910156 -22.015625 20.820312 -22.234375 21.59375 -22.671875 C 22.375 -23.109375 22.976562 -23.65625 23.40625 -24.3125 C 23.832031 -24.976562 24.046875 -25.648438 24.046875 -26.328125 C 24.046875 -27.054688 23.75 -27.695312 23.15625 -28.25 C 22.5625 -28.8125 21.613281 -29.09375 20.3125 -29.09375 Z M 11.390625 -14.515625 L 10.015625 -7.421875 L 16.03125 -7.421875 C 17.03125 -7.421875 17.890625 -7.640625 18.609375 -8.078125 C 19.335938 -8.523438 19.890625 -9.078125 20.265625 -9.734375 C 20.648438 -10.390625 20.84375 -11.050781 20.84375 -11.71875 C 20.84375 -12.457031 20.570312 -13.109375 20.03125 -13.671875 C 19.5 -14.234375 18.648438 -14.515625 17.484375 -14.515625 Z M 11.390625 -14.515625 "/></g></g></g><g fill="#000000" fill-opacity="1"><g transform="translate(255.626393, 69.484785)"><g><path d="M 3.359375 -36.46875 L 15.625 -36.46875 L 8.59375 0 L 0 0 L 6.015625 -31.125 Z M 3.359375 -36.46875 "/></g></g></g><g fill="#000000" fill-opacity="1"><g transform="translate(266.758103, 69.484785)"><g><path d="M 3.359375 -36.46875 L 15.625 -36.46875 L 10.015625 -7.375 L 27.140625 -7.375 L 25.71875 0 L 0 0 L 6 -31.15625 Z M 3.359375 -36.46875 "/></g></g></g><g fill="#000000" fill-opacity="1"><g transform="translate(295.019432, 69.484785)"><g><path d="M 3.359375 -36.46875 L 32.734375 -36.46875 L 31.3125 -29.078125 L 14.203125 -29.078125 L 12.8125 -21.90625 L 21.390625 -21.90625 L 19.96875 -14.53125 L 11.390625 -14.53125 L 10.015625 -7.375 L 27.109375 -7.375 L 25.71875 0 L 0 0 L 6 -31.125 Z M 3.359375 -36.46875 "/></g></g></g><g fill="#000000" fill-opacity="1"><g transform="translate(323.280761, 69.484785)"><g><path d="M 7.0625 -36.4375 L 15.625 -36.4375 L 14.203125 -29.078125 L 6.703125 -23.53125 L 7.78125 -29.078125 L 5.640625 -29.078125 Z M 7.0625 -36.4375 "/></g></g></g><g fill="#000000" fill-opacity="1"><g transform="translate(334.412472, 69.484785)"><g><path d="M 3.25 -37.25 L 18.953125 -37.25 C 21.429688 -37.25 23.503906 -36.9375 25.171875 -36.3125 C 26.835938 -35.6875 28.175781 -34.882812 29.1875 -33.90625 C 30.207031 -32.9375 30.976562 -31.914062 31.5 -30.84375 C 32.03125 -29.78125 32.382812 -28.785156 32.5625 -27.859375 C 32.738281 -26.941406 32.828125 -26.238281 32.828125 -25.75 L 23.6875 -25.75 C 23.6875 -26.644531 23.460938 -27.390625 23.015625 -27.984375 C 22.566406 -28.585938 21.992188 -29.035156 21.296875 -29.328125 C 20.597656 -29.628906 19.878906 -29.78125 19.140625 -29.78125 C 18.441406 -29.78125 17.769531 -29.648438 17.125 -29.390625 C 16.476562 -29.128906 15.957031 -28.734375 15.5625 -28.203125 C 15.164062 -27.679688 14.96875 -27.03125 14.96875 -26.25 C 14.96875 -25.40625 15.265625 -24.625 15.859375 -23.90625 C 16.460938 -23.195312 17.25 -22.515625 18.21875 -21.859375 C 19.1875 -21.210938 20.238281 -20.550781 21.375 -19.875 C 22.382812 -19.28125 23.378906 -18.660156 24.359375 -18.015625 C 25.347656 -17.367188 26.25 -16.671875 27.0625 -15.921875 C 27.875 -15.171875 28.523438 -14.351562 29.015625 -13.46875 C 29.515625 -12.582031 29.765625 -11.597656 29.765625 -10.515625 L 29.765625 -10.5 C 29.765625 -8.15625 29.164062 -6.128906 27.96875 -4.421875 C 26.769531 -2.710938 25.109375 -1.394531 22.984375 -0.46875 C 20.859375 0.457031 18.375 0.925781 15.53125 0.9375 C 13.101562 0.9375 11.082031 0.585938 9.46875 -0.109375 C 7.851562 -0.816406 6.546875 -1.710938 5.546875 -2.796875 C 4.554688 -3.878906 3.8125 -5.015625 3.3125 -6.203125 C 2.8125 -7.390625 2.476562 -8.488281 2.3125 -9.5 C 2.144531 -10.519531 2.0625 -11.289062 2.0625 -11.8125 L 11.15625 -11.8125 C 11.15625 -10.625 11.40625 -9.65625 11.90625 -8.90625 C 12.40625 -8.15625 13.035156 -7.59375 13.796875 -7.21875 C 14.554688 -6.84375 15.34375 -6.65625 16.15625 -6.65625 C 17.175781 -6.65625 18.085938 -6.941406 18.890625 -7.515625 C 19.703125 -8.097656 20.109375 -8.9375 20.109375 -10.03125 C 20.109375 -10.988281 19.8125 -11.8125 19.21875 -12.5 C 18.632812 -13.195312 17.875 -13.828125 16.9375 -14.390625 C 16.007812 -14.960938 15 -15.53125 13.90625 -16.09375 C 12.863281 -16.613281 11.832031 -17.171875 10.8125 -17.765625 C 9.789062 -18.359375 8.859375 -19.039062 8.015625 -19.8125 C 7.179688 -20.582031 6.503906 -21.476562 5.984375 -22.5 C 5.460938 -23.53125 5.203125 -24.738281 5.203125 -26.125 C 5.203125 -27.78125 5.609375 -29.378906 6.421875 -30.921875 Z M 3.25 -37.25 "/></g></g></g><g fill="#000000" fill-opacity="1"><g transform="translate(91.584907, 87.559364)"><g><path d="M 0.875 -9.984375 L 5.078125 -9.984375 C 5.742188 -9.984375 6.296875 -9.894531 6.734375 -9.71875 C 7.179688 -9.550781 7.539062 -9.335938 7.8125 -9.078125 C 8.09375 -8.816406 8.300781 -8.539062 8.4375 -8.25 C 8.582031 -7.96875 8.675781 -7.703125 8.71875 -7.453125 C 8.769531 -7.210938 8.796875 -7.023438 8.796875 -6.890625 L 6.34375 -6.890625 C 6.34375 -7.128906 6.28125 -7.328125 6.15625 -7.484375 C 6.039062 -7.648438 5.890625 -7.769531 5.703125 -7.84375 C 5.515625 -7.925781 5.320312 -7.96875 5.125 -7.96875 C 4.9375 -7.96875 4.753906 -7.929688 4.578125 -7.859375 C 4.410156 -7.796875 4.273438 -7.691406 4.171875 -7.546875 C 4.066406 -7.410156 4.015625 -7.238281 4.015625 -7.03125 C 4.015625 -6.800781 4.09375 -6.59375 4.25 -6.40625 C 4.40625 -6.21875 4.613281 -6.035156 4.875 -5.859375 C 5.132812 -5.679688 5.414062 -5.503906 5.71875 -5.328125 C 5.988281 -5.160156 6.253906 -4.988281 6.515625 -4.8125 C 6.785156 -4.644531 7.03125 -4.457031 7.25 -4.25 C 7.46875 -4.050781 7.640625 -3.832031 7.765625 -3.59375 C 7.898438 -3.363281 7.96875 -3.101562 7.96875 -2.8125 C 7.96875 -2.1875 7.804688 -1.644531 7.484375 -1.1875 C 7.171875 -0.726562 6.726562 -0.375 6.15625 -0.125 C 5.582031 0.125 4.914062 0.25 4.15625 0.25 C 3.507812 0.25 2.96875 0.15625 2.53125 -0.03125 C 2.101562 -0.21875 1.753906 -0.457031 1.484375 -0.75 C 1.222656 -1.039062 1.023438 -1.34375 0.890625 -1.65625 C 0.753906 -1.976562 0.660156 -2.273438 0.609375 -2.546875 C 0.566406 -2.816406 0.546875 -3.023438 0.546875 -3.171875 L 2.984375 -3.171875 C 2.984375 -2.847656 3.050781 -2.582031 3.1875 -2.375 C 3.320312 -2.175781 3.488281 -2.023438 3.6875 -1.921875 C 3.894531 -1.828125 4.109375 -1.78125 4.328125 -1.78125 C 4.597656 -1.78125 4.84375 -1.859375 5.0625 -2.015625 C 5.28125 -2.171875 5.390625 -2.394531 5.390625 -2.6875 C 5.390625 -2.9375 5.304688 -3.15625 5.140625 -3.34375 C 4.984375 -3.53125 4.78125 -3.695312 4.53125 -3.84375 C 4.289062 -4 4.019531 -4.15625 3.71875 -4.3125 C 3.445312 -4.445312 3.171875 -4.59375 2.890625 -4.75 C 2.617188 -4.914062 2.367188 -5.097656 2.140625 -5.296875 C 1.921875 -5.503906 1.738281 -5.742188 1.59375 -6.015625 C 1.457031 -6.296875 1.390625 -6.625 1.390625 -7 C 1.390625 -7.4375 1.5 -7.863281 1.71875 -8.28125 Z M 0.875 -9.984375 "/></g></g></g><g fill="#000000" fill-opacity="1"><g transform="translate(101.47548, 87.559364)"><g><path d="M 3.3125 -9.765625 L 6.59375 -9.765625 L 7.421875 0 L 5.125 0 L 5.015625 -1.15625 L 2.8125 -1.15625 L 2.296875 0 L 0 0 L 3.828125 -8.71875 Z M 4.65625 -5.375 L 3.6875 -3.140625 L 4.859375 -3.140625 Z M 4.65625 -5.375 "/></g></g></g><g fill="#000000" fill-opacity="1"><g transform="translate(111.298034, 87.559364)"><g><path d="M 0.890625 -9.765625 L 4.1875 -9.765625 L 2.6875 -1.96875 L 7.265625 -1.96875 L 6.890625 0 L 0 0 L 1.609375 -8.34375 Z M 0.890625 -9.765625 "/></g></g></g><g fill="#000000" fill-opacity="1"><g transform="translate(120.590042, 87.559364)"><g><path d="M 0.890625 -9.765625 L 8.765625 -9.765625 L 8.390625 -7.78125 L 3.796875 -7.78125 L 3.4375 -5.859375 L 5.734375 -5.859375 L 5.34375 -3.890625 L 3.046875 -3.890625 L 2.6875 -1.96875 L 7.265625 -1.96875 L 6.890625 0 L 0 0 L 1.609375 -8.34375 Z M 0.890625 -9.765625 "/></g></g></g><g fill="#000000" fill-opacity="1"><g transform="translate(129.882047, 87.559364)"><g><path d="M 0.875 -9.984375 L 5.078125 -9.984375 C 5.742188 -9.984375 6.296875 -9.894531 6.734375 -9.71875 C 7.179688 -9.550781 7.539062 -9.335938 7.8125 -9.078125 C 8.09375 -8.816406 8.300781 -8.539062 8.4375 -8.25 C 8.582031 -7.96875 8.675781 -7.703125 8.71875 -7.453125 C 8.769531 -7.210938 8.796875 -7.023438 8.796875 -6.890625 L 6.34375 -6.890625 C 6.34375 -7.128906 6.28125 -7.328125 6.15625 -7.484375 C 6.039062 -7.648438 5.890625 -7.769531 5.703125 -7.84375 C 5.515625 -7.925781 5.320312 -7.96875 5.125 -7.96875 C 4.9375 -7.96875 4.753906 -7.929688 4.578125 -7.859375 C 4.410156 -7.796875 4.273438 -7.691406 4.171875 -7.546875 C 4.066406 -7.410156 4.015625 -7.238281 4.015625 -7.03125 C 4.015625 -6.800781 4.09375 -6.59375 4.25 -6.40625 C 4.40625 -6.21875 4.613281 -6.035156 4.875 -5.859375 C 5.132812 -5.679688 5.414062 -5.503906 5.71875 -5.328125 C 5.988281 -5.160156 6.253906 -4.988281 6.515625 -4.8125 C 6.785156 -4.644531 7.03125 -4.457031 7.25 -4.25 C 7.46875 -4.050781 7.640625 -3.832031 7.765625 -3.59375 C 7.898438 -3.363281 7.96875 -3.101562 7.96875 -2.8125 C 7.96875 -2.1875 7.804688 -1.644531 7.484375 -1.1875 C 7.171875 -0.726562 6.726562 -0.375 6.15625 -0.125 C 5.582031 0.125 4.914062 0.25 4.15625 0.25 C 3.507812 0.25 2.96875 0.15625 2.53125 -0.03125 C 2.101562 -0.21875 1.753906 -0.457031 1.484375 -0.75 C 1.222656 -1.039062 1.023438 -1.34375 0.890625 -1.65625 C 0.753906 -1.976562 0.660156 -2.273438 0.609375 -2.546875 C 0.566406 -2.816406 0.546875 -3.023438 0.546875 -3.171875 L 2.984375 -3.171875 C 2.984375 -2.847656 3.050781 -2.582031 3.1875 -2.375 C 3.320312 -2.175781 3.488281 -2.023438 3.6875 -1.921875 C 3.894531 -1.828125 4.109375 -1.78125 4.328125 -1.78125 C 4.597656 -1.78125 4.84375 -1.859375 5.0625 -2.015625 C 5.28125 -2.171875 5.390625 -2.394531 5.390625 -2.6875 C 5.390625 -2.9375 5.304688 -3.15625 5.140625 -3.34375 C 4.984375 -3.53125 4.78125 -3.695312 4.53125 -3.84375 C 4.289062 -4 4.019531 -4.15625 3.71875 -4.3125 C 3.445312 -4.445312 3.171875 -4.59375 2.890625 -4.75 C 2.617188 -4.914062 2.367188 -5.097656 2.140625 -5.296875 C 1.921875 -5.503906 1.738281 -5.742188 1.59375 -6.015625 C 1.457031 -6.296875 1.390625 -6.625 1.390625 -7 C 1.390625 -7.4375 1.5 -7.863281 1.71875 -8.28125 Z M 0.875 -9.984375 "/></g></g></g><g fill="#000000" fill-opacity="1"><g transform="translate(139.772618, 87.559364)"><g/></g></g><g fill="#000000" fill-opacity="1"><g transform="translate(144.956281, 87.559364)"><g><path d="M 4.96875 -10 C 5.414062 -10 5.8125 -9.894531 6.15625 -9.6875 C 6.5 -9.488281 6.769531 -9.21875 6.96875 -8.875 C 7.164062 -8.539062 7.265625 -8.175781 7.265625 -7.78125 C 7.265625 -7.375 7.144531 -6.976562 6.90625 -6.59375 C 6.675781 -6.21875 6.378906 -5.851562 6.015625 -5.5 C 5.648438 -5.15625 5.265625 -4.828125 4.859375 -4.515625 C 5.191406 -3.929688 5.550781 -3.359375 5.9375 -2.796875 C 6.269531 -3.140625 6.566406 -3.550781 6.828125 -4.03125 L 8.15625 -2.875 C 7.84375 -2.332031 7.453125 -1.835938 6.984375 -1.390625 C 7.535156 -0.703125 7.929688 -0.238281 8.171875 0 L 5.875 0 C 5.875 0 5.769531 -0.117188 5.5625 -0.359375 C 5.207031 -0.179688 4.828125 -0.0390625 4.421875 0.0625 C 4.023438 0.164062 3.613281 0.21875 3.1875 0.21875 C 2.914062 0.21875 2.617188 0.175781 2.296875 0.09375 C 1.984375 0.0195312 1.6875 -0.101562 1.40625 -0.28125 C 1.125 -0.46875 0.890625 -0.707031 0.703125 -1 C 0.515625 -1.300781 0.421875 -1.664062 0.421875 -2.09375 C 0.421875 -2.425781 0.519531 -2.753906 0.71875 -3.078125 C 0.925781 -3.398438 1.1875 -3.710938 1.5 -4.015625 C 1.820312 -4.328125 2.175781 -4.625 2.5625 -4.90625 C 2.40625 -5.257812 2.28125 -5.601562 2.1875 -5.9375 C 2.101562 -6.269531 2.0625 -6.585938 2.0625 -6.890625 C 2.0625 -7.441406 2.175781 -7.953125 2.40625 -8.421875 C 2.644531 -8.898438 2.976562 -9.28125 3.40625 -9.5625 C 3.84375 -9.851562 4.363281 -10 4.96875 -10 Z M 4.9375 -8.546875 L 4.921875 -8.546875 C 4.765625 -8.546875 4.601562 -8.488281 4.4375 -8.375 C 4.269531 -8.269531 4.128906 -8.113281 4.015625 -7.90625 C 3.910156 -7.707031 3.859375 -7.46875 3.859375 -7.1875 C 3.859375 -6.863281 3.9375 -6.484375 4.09375 -6.046875 C 4.507812 -6.359375 4.851562 -6.65625 5.125 -6.9375 C 5.40625 -7.226562 5.546875 -7.503906 5.546875 -7.765625 C 5.546875 -8.035156 5.484375 -8.234375 5.359375 -8.359375 C 5.242188 -8.484375 5.101562 -8.546875 4.9375 -8.546875 Z M 3.375 -3.375 C 3.082031 -3.132812 2.84375 -2.910156 2.65625 -2.703125 C 2.476562 -2.492188 2.390625 -2.300781 2.390625 -2.125 C 2.390625 -1.914062 2.472656 -1.753906 2.640625 -1.640625 C 2.816406 -1.535156 3.039062 -1.484375 3.3125 -1.484375 C 3.644531 -1.484375 4.03125 -1.570312 4.46875 -1.75 C 4.101562 -2.238281 3.738281 -2.78125 3.375 -3.375 Z M 3.375 -3.375 "/></g></g></g><g fill="#000000" fill-opacity="1"><g transform="translate(155.527041, 87.559364)"><g/></g></g><g fill="#000000" fill-opacity="1"><g transform="translate(160.710704, 87.559364)"><g><path d="M 0.875 -9.984375 L 5.078125 -9.984375 C 5.742188 -9.984375 6.296875 -9.894531 6.734375 -9.71875 C 7.179688 -9.550781 7.539062 -9.335938 7.8125 -9.078125 C 8.09375 -8.816406 8.300781 -8.539062 8.4375 -8.25 C 8.582031 -7.96875 8.675781 -7.703125 8.71875 -7.453125 C 8.769531 -7.210938 8.796875 -7.023438 8.796875 -6.890625 L 6.34375 -6.890625 C 6.34375 -7.128906 6.28125 -7.328125 6.15625 -7.484375 C 6.039062 -7.648438 5.890625 -7.769531 5.703125 -7.84375 C 5.515625 -7.925781 5.320312 -7.96875 5.125 -7.96875 C 4.9375 -7.96875 4.753906 -7.929688 4.578125 -7.859375 C 4.410156 -7.796875 4.273438 -7.691406 4.171875 -7.546875 C 4.066406 -7.410156 4.015625 -7.238281 4.015625 -7.03125 C 4.015625 -6.800781 4.09375 -6.59375 4.25 -6.40625 C 4.40625 -6.21875 4.613281 -6.035156 4.875 -5.859375 C 5.132812 -5.679688 5.414062 -5.503906 5.71875 -5.328125 C 5.988281 -5.160156 6.253906 -4.988281 6.515625 -4.8125 C 6.785156 -4.644531 7.03125 -4.457031 7.25 -4.25 C 7.46875 -4.050781 7.640625 -3.832031 7.765625 -3.59375 C 7.898438 -3.363281 7.96875 -3.101562 7.96875 -2.8125 C 7.96875 -2.1875 7.804688 -1.644531 7.484375 -1.1875 C 7.171875 -0.726562 6.726562 -0.375 6.15625 -0.125 C 5.582031 0.125 4.914062 0.25 4.15625 0.25 C 3.507812 0.25 2.96875 0.15625 2.53125 -0.03125 C 2.101562 -0.21875 1.753906 -0.457031 1.484375 -0.75 C 1.222656 -1.039062 1.023438 -1.34375 0.890625 -1.65625 C 0.753906 -1.976562 0.660156 -2.273438 0.609375 -2.546875 C 0.566406 -2.816406 0.546875 -3.023438 0.546875 -3.171875 L 2.984375 -3.171875 C 2.984375 -2.847656 3.050781 -2.582031 3.1875 -2.375 C 3.320312 -2.175781 3.488281 -2.023438 3.6875 -1.921875 C 3.894531 -1.828125 4.109375 -1.78125 4.328125 -1.78125 C 4.597656 -1.78125 4.84375 -1.859375 5.0625 -2.015625 C 5.28125 -2.171875 5.390625 -2.394531 5.390625 -2.6875 C 5.390625 -2.9375 5.304688 -3.15625 5.140625 -3.34375 C 4.984375 -3.53125 4.78125 -3.695312 4.53125 -3.84375 C 4.289062 -4 4.019531 -4.15625 3.71875 -4.3125 C 3.445312 -4.445312 3.171875 -4.59375 2.890625 -4.75 C 2.617188 -4.914062 2.367188 -5.097656 2.140625 -5.296875 C 1.921875 -5.503906 1.738281 -5.742188 1.59375 -6.015625 C 1.457031 -6.296875 1.390625 -6.625 1.390625 -7 C 1.390625 -7.4375 1.5 -7.863281 1.71875 -8.28125 Z M 0.875 -9.984375 "/></g></g></g><g fill="#000000" fill-opacity="1"><g transform="translate(170.601275, 87.559364)"><g><path d="M 0.890625 -9.765625 L 8.765625 -9.765625 L 8.390625 -7.78125 L 3.796875 -7.78125 L 3.4375 -5.859375 L 5.734375 -5.859375 L 5.34375 -3.890625 L 3.046875 -3.890625 L 2.6875 -1.96875 L 7.265625 -1.96875 L 6.890625 0 L 0 0 L 1.609375 -8.34375 Z M 0.890625 -9.765625 "/></g></g></g><g fill="#000000" fill-opacity="1"><g transform="translate(179.89328, 87.559364)"><g><path d="M 0.890625 -9.765625 L 4.171875 -9.765625 C 4.515625 -9.765625 4.882812 -9.742188 5.28125 -9.703125 C 5.675781 -9.671875 6.0625 -9.59375 6.4375 -9.46875 C 6.820312 -9.351562 7.171875 -9.175781 7.484375 -8.9375 C 7.796875 -8.707031 8.046875 -8.398438 8.234375 -8.015625 C 8.421875 -7.628906 8.515625 -7.148438 8.515625 -6.578125 C 8.515625 -6.148438 8.4375 -5.726562 8.28125 -5.3125 C 8.132812 -4.90625 7.890625 -4.53125 7.546875 -4.1875 C 7.210938 -3.84375 6.78125 -3.554688 6.25 -3.328125 L 7.328125 0 L 5.015625 0 L 4.109375 -2.84375 C 3.773438 -2.820312 3.425781 -2.8125 3.0625 -2.8125 C 2.988281 -2.8125 2.914062 -2.8125 2.84375 -2.8125 L 2.296875 0 L 0 0 L 1.609375 -8.34375 Z M 4 -7.796875 L 3.796875 -7.796875 L 3.21875 -4.796875 L 3.796875 -4.796875 C 4.109375 -4.796875 4.414062 -4.828125 4.71875 -4.890625 C 5.03125 -4.953125 5.304688 -5.050781 5.546875 -5.1875 C 5.796875 -5.320312 5.992188 -5.5 6.140625 -5.71875 C 6.296875 -5.9375 6.375 -6.203125 6.375 -6.515625 C 6.375 -6.828125 6.296875 -7.066406 6.140625 -7.234375 C 5.992188 -7.410156 5.800781 -7.535156 5.5625 -7.609375 C 5.320312 -7.691406 5.078125 -7.742188 4.828125 -7.765625 C 4.585938 -7.785156 4.359375 -7.796875 4.140625 -7.796875 C 4.085938 -7.796875 4.039062 -7.796875 4 -7.796875 Z M 4 -7.796875 "/></g></g></g><g fill="#000000" fill-opacity="1"><g transform="translate(189.620606, 87.559364)"><g><path d="M 0.90625 -9.765625 L 4.1875 -9.765625 L 4.484375 -4.78125 L 6.59375 -9.765625 L 8.890625 -9.765625 L 4.78125 0 L 2.484375 0 L 2.03125 -7.515625 Z M 0.90625 -9.765625 "/></g></g></g><g fill="#000000" fill-opacity="1"><g transform="translate(199.035051, 87.559364)"><g><path d="M 0.890625 -9.765625 L 4.1875 -9.765625 L 2.296875 0 L 0 0 L 1.609375 -8.34375 Z M 0.890625 -9.765625 "/></g></g></g><g fill="#000000" fill-opacity="1"><g transform="translate(203.742587, 87.559364)"><g><path d="M 6.421875 -9.765625 L 8.171875 -9.765625 L 7.421875 -5.890625 L 6.46875 -7.796875 L 6.046875 -7.796875 C 5.734375 -7.796875 5.394531 -7.695312 5.03125 -7.5 C 4.675781 -7.3125 4.34375 -7.039062 4.03125 -6.6875 C 3.726562 -6.34375 3.476562 -5.9375 3.28125 -5.46875 C 3.082031 -5 2.984375 -4.484375 2.984375 -3.921875 C 2.984375 -3.441406 3.070312 -3.054688 3.25 -2.765625 C 3.4375 -2.484375 3.675781 -2.28125 3.96875 -2.15625 C 4.257812 -2.03125 4.570312 -1.96875 4.90625 -1.96875 L 6.671875 -1.96875 L 6.28125 0 L 4.765625 0 C 4.421875 0 4.066406 -0.0351562 3.703125 -0.109375 C 3.347656 -0.179688 3 -0.304688 2.65625 -0.484375 C 2.3125 -0.660156 2.003906 -0.894531 1.734375 -1.1875 C 1.460938 -1.476562 1.242188 -1.835938 1.078125 -2.265625 C 0.921875 -2.703125 0.84375 -3.222656 0.84375 -3.828125 C 0.84375 -4.328125 0.914062 -4.851562 1.0625 -5.40625 C 1.21875 -5.957031 1.441406 -6.488281 1.734375 -7 C 2.035156 -7.519531 2.410156 -7.988281 2.859375 -8.40625 C 3.304688 -8.820312 3.828125 -9.148438 4.421875 -9.390625 C 5.023438 -9.640625 5.691406 -9.765625 6.421875 -9.765625 Z M 6.421875 -9.765625 "/></g></g></g><g fill="#000000" fill-opacity="1"><g transform="translate(212.436031, 87.559364)"><g><path d="M 0.890625 -9.765625 L 8.765625 -9.765625 L 8.390625 -7.78125 L 3.796875 -7.78125 L 3.4375 -5.859375 L 5.734375 -5.859375 L 5.34375 -3.890625 L 3.046875 -3.890625 L 2.6875 -1.96875 L 7.265625 -1.96875 L 6.890625 0 L 0 0 L 1.609375 -8.34375 Z M 0.890625 -9.765625 "/></g></g></g><g fill="#000000" fill-opacity="1"><g transform="translate(221.728042, 87.559364)"><g/></g></g><g fill="#000000" fill-opacity="1"><g transform="translate(226.91171, 87.559364)"><g><path d="M 3.3125 -9.765625 L 6.59375 -9.765625 L 7.421875 0 L 5.125 0 L 5.015625 -1.15625 L 2.8125 -1.15625 L 2.296875 0 L 0 0 L 3.828125 -8.71875 Z M 4.65625 -5.375 L 3.6875 -3.140625 L 4.859375 -3.140625 Z M 4.65625 -5.375 "/></g></g></g><g fill="#000000" fill-opacity="1"><g transform="translate(236.734268, 87.559364)"><g><path d="M 0.90625 -9.765625 L 4.1875 -9.765625 L 4.484375 -4.78125 L 6.59375 -9.765625 L 8.890625 -9.765625 L 4.78125 0 L 2.484375 0 L 2.03125 -7.515625 Z M 0.90625 -9.765625 "/></g></g></g><g fill="#000000" fill-opacity="1"><g transform="translate(246.148713, 87.559364)"><g><path d="M 3.3125 -9.765625 L 6.59375 -9.765625 L 7.421875 0 L 5.125 0 L 5.015625 -1.15625 L 2.8125 -1.15625 L 2.296875 0 L 0 0 L 3.828125 -8.71875 Z M 4.65625 -5.375 L 3.6875 -3.140625 L 4.859375 -3.140625 Z M 4.65625 -5.375 "/></g></g></g><g fill="#000000" fill-opacity="1"><g transform="translate(255.971271, 87.559364)"><g><path d="M 0.890625 -9.765625 L 4.1875 -9.765625 L 2.296875 0 L 0 0 L 1.609375 -8.34375 Z M 0.890625 -9.765625 "/></g></g></g><g fill="#000000" fill-opacity="1"><g transform="translate(260.678807, 87.559364)"><g><path d="M 0.890625 -9.765625 L 4.1875 -9.765625 L 2.6875 -1.96875 L 7.265625 -1.96875 L 6.890625 0 L 0 0 L 1.609375 -8.34375 Z M 0.890625 -9.765625 "/></g></g></g><g fill="#000000" fill-opacity="1"><g transform="translate(269.970817, 87.559364)"><g><path d="M 3.3125 -9.765625 L 6.59375 -9.765625 L 7.421875 0 L 5.125 0 L 5.015625 -1.15625 L 2.8125 -1.15625 L 2.296875 0 L 0 0 L 3.828125 -8.71875 Z M 4.65625 -5.375 L 3.6875 -3.140625 L 4.859375 -3.140625 Z M 4.65625 -5.375 "/></g></g></g><g fill="#000000" fill-opacity="1"><g transform="translate(279.793375, 87.559364)"><g><path d="M 0.890625 -9.765625 L 5.796875 -9.765625 C 6.304688 -9.765625 6.78125 -9.671875 7.21875 -9.484375 C 7.65625 -9.304688 8.007812 -9.039062 8.28125 -8.6875 C 8.550781 -8.34375 8.6875 -7.914062 8.6875 -7.40625 C 8.6875 -7.050781 8.625 -6.734375 8.5 -6.453125 C 8.382812 -6.179688 8.238281 -5.945312 8.0625 -5.75 C 7.894531 -5.550781 7.726562 -5.382812 7.5625 -5.25 C 7.394531 -5.125 7.253906 -5.03125 7.140625 -4.96875 C 7.023438 -4.90625 6.96875 -4.875 6.96875 -4.875 C 6.96875 -4.875 7.007812 -4.835938 7.09375 -4.765625 C 7.1875 -4.703125 7.289062 -4.597656 7.40625 -4.453125 C 7.519531 -4.316406 7.625 -4.140625 7.71875 -3.921875 C 7.8125 -3.703125 7.859375 -3.453125 7.859375 -3.171875 C 7.859375 -2.535156 7.707031 -1.976562 7.40625 -1.5 C 7.101562 -1.03125 6.6875 -0.660156 6.15625 -0.390625 C 5.625 -0.128906 5.015625 0 4.328125 0 L 0 0 L 1.609375 -8.34375 Z M 3.796875 -7.796875 L 3.4375 -5.890625 L 5.046875 -5.890625 C 5.328125 -5.890625 5.570312 -5.945312 5.78125 -6.0625 C 5.988281 -6.1875 6.148438 -6.335938 6.265625 -6.515625 C 6.378906 -6.691406 6.4375 -6.867188 6.4375 -7.046875 C 6.4375 -7.242188 6.359375 -7.414062 6.203125 -7.5625 C 6.046875 -7.71875 5.789062 -7.796875 5.4375 -7.796875 Z M 3.046875 -3.890625 L 2.6875 -1.984375 L 4.296875 -1.984375 C 4.566406 -1.984375 4.796875 -2.039062 4.984375 -2.15625 C 5.179688 -2.28125 5.328125 -2.429688 5.421875 -2.609375 C 5.523438 -2.785156 5.578125 -2.960938 5.578125 -3.140625 C 5.578125 -3.335938 5.503906 -3.507812 5.359375 -3.65625 C 5.222656 -3.8125 5 -3.890625 4.6875 -3.890625 Z M 3.046875 -3.890625 "/></g></g></g><g fill="#000000" fill-opacity="1"><g transform="translate(290.187293, 87.559364)"><g><path d="M 0.890625 -9.765625 L 4.1875 -9.765625 L 2.6875 -1.96875 L 7.265625 -1.96875 L 6.890625 0 L 0 0 L 1.609375 -8.34375 Z M 0.890625 -9.765625 "/></g></g></g><g fill="#000000" fill-opacity="1"><g transform="translate(299.479292, 87.559364)"><g><path d="M 0.890625 -9.765625 L 8.765625 -9.765625 L 8.390625 -7.78125 L 3.796875 -7.78125 L 3.4375 -5.859375 L 5.734375 -5.859375 L 5.34375 -3.890625 L 3.046875 -3.890625 L 2.6875 -1.96875 L 7.265625 -1.96875 L 6.890625 0 L 0 0 L 1.609375 -8.34375 Z M 0.890625 -9.765625 "/></g></g></g><g fill="#000000" fill-opacity="1"><g transform="translate(308.771291, 87.559364)"><g/></g></g><g fill="#000000" fill-opacity="1"><g transform="translate(313.954948, 87.559364)"><g><path d="M 0.890625 -9.765625 L 4.1875 -9.765625 L 3.4375 -5.859375 L 5.625 -5.859375 L 6.390625 -9.765625 L 8.671875 -9.765625 L 6.796875 0 L 4.5 0 L 5.25 -3.890625 L 3.0625 -3.890625 L 2.296875 0 L 0 0 L 1.609375 -8.34375 Z M 0.890625 -9.765625 "/></g></g></g><g fill="#000000" fill-opacity="1"><g transform="translate(323.158534, 87.559364)"><g><path d="M 0.890625 -9.765625 L 8.765625 -9.765625 L 8.390625 -7.78125 L 3.796875 -7.78125 L 3.4375 -5.859375 L 5.734375 -5.859375 L 5.34375 -3.890625 L 3.046875 -3.890625 L 2.6875 -1.96875 L 7.265625 -1.96875 L 6.890625 0 L 0 0 L 1.609375 -8.34375 Z M 0.890625 -9.765625 "/></g></g></g><g fill="#000000" fill-opacity="1"><g transform="translate(332.450533, 87.559364)"><g><path d="M 0.890625 -9.765625 L 4.171875 -9.765625 C 4.515625 -9.765625 4.882812 -9.742188 5.28125 -9.703125 C 5.675781 -9.671875 6.0625 -9.59375 6.4375 -9.46875 C 6.820312 -9.351562 7.171875 -9.175781 7.484375 -8.9375 C 7.796875 -8.707031 8.046875 -8.398438 8.234375 -8.015625 C 8.421875 -7.628906 8.515625 -7.148438 8.515625 -6.578125 C 8.515625 -6.148438 8.4375 -5.726562 8.28125 -5.3125 C 8.132812 -4.90625 7.890625 -4.53125 7.546875 -4.1875 C 7.210938 -3.84375 6.78125 -3.554688 6.25 -3.328125 L 7.328125 0 L 5.015625 0 L 4.109375 -2.84375 C 3.773438 -2.820312 3.425781 -2.8125 3.0625 -2.8125 C 2.988281 -2.8125 2.914062 -2.8125 2.84375 -2.8125 L 2.296875 0 L 0 0 L 1.609375 -8.34375 Z M 4 -7.796875 L 3.796875 -7.796875 L 3.21875 -4.796875 L 3.796875 -4.796875 C 4.109375 -4.796875 4.414062 -4.828125 4.71875 -4.890625 C 5.03125 -4.953125 5.304688 -5.050781 5.546875 -5.1875 C 5.796875 -5.320312 5.992188 -5.5 6.140625 -5.71875 C 6.296875 -5.9375 6.375 -6.203125 6.375 -6.515625 C 6.375 -6.828125 6.296875 -7.066406 6.140625 -7.234375 C 5.992188 -7.410156 5.800781 -7.535156 5.5625 -7.609375 C 5.320312 -7.691406 5.078125 -7.742188 4.828125 -7.765625 C 4.585938 -7.785156 4.359375 -7.796875 4.140625 -7.796875 C 4.085938 -7.796875 4.039062 -7.796875 4 -7.796875 Z M 4 -7.796875 "/></g></g></g><g fill="#000000" fill-opacity="1"><g transform="translate(342.177854, 87.559364)"><g><path d="M 0.890625 -9.765625 L 8.765625 -9.765625 L 8.390625 -7.78125 L 3.796875 -7.78125 L 3.4375 -5.859375 L 5.734375 -5.859375 L 5.34375 -3.890625 L 3.046875 -3.890625 L 2.6875 -1.96875 L 7.265625 -1.96875 L 6.890625 0 L 0 0 L 1.609375 -8.34375 Z M 0.890625 -9.765625 "/></g></g></g></svg>