<svg xmlns="http://www.w3.org/2000/svg" xmlns:xlink="http://www.w3.org/1999/xlink" width="500" zoomAndPan="magnify" viewBox="0 0 375 375" height="500" preserveAspectRatio="xMidYMid meet" xmlns:v="https://vecta.io/nano"><style><![CDATA[.B{fill-opacity:.4}.C{clip-rule:nonzero}]]></style><defs><clipPath id="A"><path d="M69.973 29.363h152.25v223.5H69.973zm0 0" class="C"/></clipPath><clipPath id="B"><path d="M150 57h131v186H150zm0 0" class="C"/></clipPath><clipPath id="C"><path d="M184.664 53.5l100.211 22.684-38.41 169.707-100.215-22.684zm0 0" class="C"/></clipPath><clipPath id="D"><path d="M184.664 53.5l100.211 22.684-38.41 169.707-100.215-22.684zm0 0" class="C"/></clipPath><path id="E" d="M131.786 306.193c-3.812 0-7.152-.812-10.016-2.437-2.855-1.633-5.055-3.945-6.594-6.937-1.543-3-2.312-6.516-2.312-10.547s.781-7.562 2.344-10.594 3.77-5.379 6.625-7.047 6.172-2.5 9.953-2.5c3.75 0 7.039.836 9.875 2.5 2.844 1.668 5.047 4.016 6.609 7.047s2.344 6.563 2.344 10.594c0 3.992-.773 7.496-2.312 10.516-1.543 3.012-3.734 5.336-6.578 6.969-2.836 1.625-6.148 2.438-9.937 2.438zm0-8.203c1.539 0 2.766-.375 3.672-1.125.914-.758 1.582-1.977 2-3.656.426-1.687.641-3.945.641-6.781 0-4.344-.492-7.461-1.469-9.359s-2.594-2.844-4.844-2.844c-2.273 0-3.906.949-4.906 2.844s-1.5 5.016-1.5 9.359c0 2.836.207 5.094.625 6.781.426 1.68 1.102 2.898 2.031 3.656.926.75 2.176 1.125 3.75 1.125zm0 0"/><path id="F" d="M156.176 305.662c-.344 0-.633-.113-.859-.344a1.1 1.1 0 0 1-.344-.812v-36.484c0-.383.117-.707.359-.969a1.27 1.27 0 0 1 .953-.391h15.656c5.469 0 9.613.871 12.438 2.609 2.82 1.73 4.234 4.293 4.234 7.688 0 1.867-.512 3.438-1.531 4.719-1.012 1.273-2.797 2.5-5.359 3.688-.074.043-.109.109-.109.203 0 .086.035.141.109.172 2.844 1.055 4.859 2.297 6.047 3.734s1.781 3.293 1.781 5.563c0 3.617-1.375 6.293-4.125 8.031-2.75 1.73-6.965 2.594-12.641 2.594zm16.609-23.766c1.227 0 2.207-.328 2.938-.984.738-.664 1.109-1.523 1.109-2.578 0-1.125-.422-2.035-1.266-2.734-.836-.695-1.883-1.047-3.141-1.047h-4.312c-.461 0-.777.078-.953.234-.168.156-.25.43-.25.813v5.141c0 .43.066.73.203.906.133.168.363.25.688.25zm-.25 15.875c1.426 0 2.551-.398 3.375-1.203.832-.801 1.25-1.75 1.25-2.844 0-1.082-.406-1.973-1.219-2.672-.805-.695-1.855-1.047-3.156-1.047h-4.672c-.461 0-.777.09-.953.266-.168.168-.25.445-.25.828v5.516c0 .43.066.73.203.906.133.168.363.25.688.25zm0 0"/><path id="G" d="M234.816 267.865c0-.383.086-.68.266-.891s.422-.312.734-.312h28.016c.625 0 .938.371.938 1.109l-.047 6.094c0 .949-.437 1.422-1.312 1.422h-15.453c-.805 0-1.203.336-1.203 1v4.938c0 .699.313 1.047.938 1.047h9.625c.695 0 1.047.352 1.047 1.047v6.422c0 .594-.32.891-.953.891h-9.828c-.242 0-.437.074-.594.219-.156.137-.234.324-.234.563v12.719c0 .563-.141.961-.422 1.188s-.719.344-1.312.344h-8.781c-.531 0-.902-.102-1.109-.312s-.312-.539-.312-1zm0 0"/><path id="H" d="M279.967 266.662c.633 0 .953.371.953 1.109v36.359c0 .563-.141.961-.422 1.188s-.719.344-1.312.344h-8.781c-.531 0-.902-.102-1.109-.312s-.312-.539-.312-1v-36.484c0-.383.086-.68.266-.891s.422-.312.734-.312zm0 0"/><path id="I" d="M321.444 302.975c.488.742.734 1.34.734 1.797 0 .594-.492.891-1.469.891h-9.469c-1.086 0-1.82-.348-2.203-1.047l-5.781-9.891c-.324-.52-.57-.781-.734-.781-.219 0-.465.246-.734.734l-5.687 9.938c-.387.699-1.137 1.047-2.25 1.047h-7.469c-.98 0-1.469-.281-1.469-.844 0-.383.258-1 .781-1.844l10.359-16.031c.238-.344.359-.656.359-.937 0-.25-.121-.566-.359-.953l-10.625-16.547c-.168-.219-.25-.52-.25-.906 0-.625.363-.937 1.094-.937h9.938c.563 0 1 .09 1.313.266s.578.461.797.844l4.781 8.453c.164.281.359.422.578.422.207 0 .398-.141.578-.422l4.781-8.453c.207-.383.457-.664.75-.844.301-.176.734-.266 1.297-.266h8.141c.707 0 1.063.262 1.063.781 0 .25-.125.57-.375.953l-9.937 15.234c-.211.324-.312.605-.312.844 0 .25.141.605.422 1.063zm0 0"/><path id="J" d="M64.216 315.78h-4.543v9.906h1.254v-4.109h3.23c2.191 0 3.055-1.328 3.055-2.906 0-1.594-.863-2.891-2.996-2.891zm-.312 4.797h-2.977v-3.797h3.023c1.43 0 1.965.715 1.965 1.891 0 1.133-.535 1.906-2.012 1.906zm0 0"/><path id="K" d="M76.982 325.94c3.441 0 4.945-2.234 4.945-5.215 0-2.934-1.504-5.215-4.945-5.215s-4.93 2.266-4.93 5.215c0 2.996 1.488 5.215 4.93 5.215zm-3.637-5.215c0-2.785 1.105-4.184 3.637-4.184s3.648 1.398 3.648 4.184-1.117 4.188-3.648 4.188-3.637-1.402-3.637-4.187zm0 0"/><path id="L" d="M99.056 315.78l-2.086 9.117-2.41-9.117h-1.937l-2.414 9.117-2.086-9.117h-1.25l2.262 9.906h2.086l2.371-8.969 2.352 8.969h2.086l2.266-9.906zm0 0"/><path id="M" d="M106.667 324.69v-3.605h5.645v-.984h-5.645v-3.32h6.09v-1h-7.328v9.906h7.375v-.996zm0 0"/><path id="N" d="M125.492 323.065c0-1.461-.668-1.906-1.609-2.176 1.105-.254 1.922-1.176 1.922-2.504 0-1.594-.996-2.605-3.039-2.605h-4.617v9.906h1.238v-4.437h2.785c1.371 0 2.129.578 2.129 1.996v.906c0 .715.074 1.207.18 1.535h1.207a6.18 6.18 0 0 1-.195-1.578zm-2.875-2.742h-3.23v-3.543h3.246c1.297 0 1.879.566 1.879 1.711 0 1.133-.508 1.832-1.895 1.832zm0 0"/><path id="O" d="M148.015 315.78h-4.113v9.906h4.113c3.246 0 4.617-2.25 4.617-4.977 0-2.695-1.371-4.93-4.617-4.93zm-.223 8.91h-2.652v-7.91h2.652c2.648 0 3.543 1.414 3.543 3.93s-.906 3.98-3.543 3.98zm0 0"/><path id="P" d="M170.386 320.561c.996-.18 1.863-.895 1.863-2.324 0-1.371-.73-2.457-2.848-2.457h-4.871v9.906h4.844c2.055 0 3.039-1.043 3.039-2.668 0-1.562-.941-2.32-2.027-2.457zm-1.238-3.781c1.387 0 1.805.52 1.805 1.637 0 1.086-.566 1.668-1.965 1.668h-3.219v-3.305zm.105 7.91h-3.484v-3.668h3.246c1.488 0 2.102.688 2.102 1.863 0 1.059-.477 1.805-1.863 1.805zm0 0"/><path id="Q" d="M184.311 315.78l-2.262 4.098-.687 1.266-.684-1.266-2.25-4.098h-1.414l3.723 6.434v3.473h1.238v-3.473l3.723-6.434zm0 0"/><path id="R" d="M214.758 325.94c3.172 0 4.586-1.684 4.75-4.203h-1.266c-.133 2.012-1.266 3.176-3.516 3.176-2.473 0-3.621-1.418-3.621-4.187s1.18-4.184 3.652-4.184c2.145 0 3.246.996 3.453 2.934h1.254c-.238-2.457-1.625-3.965-4.68-3.965-3.41 0-4.973 2.234-4.973 5.215 0 3.008 1.535 5.215 4.945 5.215zm0 0"/><path id="S" d="M242.24 315.78h-2.133l-3.262 8.789-3.277-8.789h-2.16v9.906h1.238v-8.98l3.352 8.98h1.668l3.336-8.98v8.98h1.238zm0 0"/><path id="T" d="M310.095 322.291c0 1.949 1.102 3.617 4.32 3.617 2.758 0 3.918-1.086 3.918-2.977 0-1.598-.937-2.371-2.695-2.652l-2.473-.375c-1.117-.176-1.488-.789-1.488-1.562 0-1.102.742-1.863 2.5-1.863 1.863 0 2.695.91 2.832 2.25h1.191c-.137-1.906-1.414-3.219-4.008-3.219-2.562 0-3.77 1.27-3.77 2.863 0 1.488.789 2.336 2.52 2.59l2.336.359c1.254.207 1.805.73 1.805 1.77 0 1.148-.625 1.848-2.668 1.848-2.293 0-3.082-1.117-3.113-2.648zm0 0"/></defs><g clip-path="url(#A)"><path fill="#e3a72f" d="M167.168 29.395h28.66a5.95 5.95 0 0 1 5.945 5.926v.055l1.355 19.426a.98.98 0 0 0 .727.879c6.18 1.621 12.094 3.887 17.664 6.742.543.281.695.969.332 1.445L208.277 81.73a.97.97 0 0 1-1.16.305c-2.316-1.012-4.707-1.887-7.152-2.625a64.67 64.67 0 0 0-9.684-2.102 65.51 65.51 0 0 0-6.043-.535c-.91-.039-1.824-.059-2.742-.059a64.65 64.65 0 0 0-5.238.211c-18.82 1.52-35.355 11.16-46.102 25.426a64.2 64.2 0 0 0-12.945 38.762c0 35.57 28.781 64.402 64.285 64.402 9.109 0 17.773-1.898 25.621-5.32a.97.97 0 0 1 1.16.305l1.277 1.676 12.289 16.172a.98.98 0 0 1-.324 1.461c-.066.031-.129.066-.195.098a5.47 5.47 0 0 1-.262.133c-2.793 1.41-5.676 2.676-8.629 3.785a87.98 87.98 0 0 1-8.578 2.723c-.402.105-.695.461-.727.879l-1.355 19.43v.051c-.016 3.273-2.672 5.93-5.945 5.93h-28.66a5.95 5.95 0 0 1-5.945-5.93v-.051l-1.359-19.43c-.027-.418-.32-.773-.727-.879a87.49 87.49 0 0 1-22.125-9.187c-.363-.211-.82-.172-1.137.102l-14.676 12.785c-.012.016-.027.023-.039.039a5.94 5.94 0 0 1-8.387-.02l-12.352-12.375-7.914-7.93c-2.316-2.32-2.32-6.078-.02-8.402.012-.012.023-.023.035-.039l12.762-14.703c.273-.316.313-.773.102-1.137a87.86 87.86 0 0 1-9.172-22.164.97.97 0 0 0-.875-.73l-19.395-1.355c-.016-.004-.035-.004-.051-.004-3.27-.016-5.918-2.676-5.918-5.953v-28.719c0-3.277 2.648-5.937 5.918-5.953h.051l19.395-1.359a.97.97 0 0 0 .875-.73 87.92 87.92 0 0 1 9.172-22.164c.211-.359.172-.816-.102-1.137l-2.152-2.48-10.609-12.223c-.012-.016-.023-.027-.035-.039a5.96 5.96 0 0 1 .02-8.398l7.914-7.934 12.352-12.375c2.316-2.316 6.066-2.324 8.387-.016.012.012.027.023.039.035l14.676 12.785c.316.273.773.316 1.137.102a87.61 87.61 0 0 1 18.941-8.289c1.055-.316 2.113-.617 3.184-.898a.97.97 0 0 0 .727-.879l.203-2.875.168-2.406.5-7.199.488-6.945v-.055c.012-3.277 2.668-5.926 5.945-5.926"/></g><g clip-path="url(#B)"><g clip-path="url(#C)"><g clip-path="url(#D)"><path fill="#072349" d="M265.586 71.816l-61.633-13.949c-10.633-2.406-21.219 4.281-23.629 14.926l-29.68 131.137c-2.41 10.645 4.262 21.238 14.895 23.645l61.633 13.949c10.633 2.406 21.219-4.277 23.629-14.922l29.684-131.141c2.406-10.645-4.266-21.234-14.898-23.645zm-67.484 155.02c-6.395-1.449-10.387-7.785-8.937-14.187a11.84 11.84 0 0 1 14.176-8.953c6.395 1.445 10.387 7.781 8.938 14.184s-7.781 10.402-14.176 8.957zm41.656-23.008l-69.34-15.695 24.445-107.996 69.336 15.695zm0 0"/></g></g></g><g fill="#e3a72f"><path d="M63.978 305.662c-.418 0-.75-.129-1-.391-.242-.258-.359-.617-.359-1.078v-36.328c0-.414.086-.719.266-.906.176-.195.457-.297.844-.297h14.703c.457 0 .781.063.969.188.195.117.367.367.516.75l5.469 16.719c.102.281.223.422.359.422.102 0 .207-.141.313-.422l4.891-16.141c.281-1.008.754-1.516 1.422-1.516h15.188c.633 0 .953.371.953 1.109v36.359c0 .563-.137.961-.406 1.188-.262.23-.687.344-1.281.344h-8.875c-.531 0-.898-.102-1.094-.312-.187-.207-.281-.539-.281-1V280.74c0-.27-.07-.406-.203-.406-.18 0-.32.156-.422.469l-7.578 23.906c-.242.637-.656.953-1.25.953h-5.531c-.625 0-1.043-.316-1.25-.953l-7.578-23.484c-.105-.352-.227-.531-.359-.531-.18 0-.266.195-.266.578v23.234c0 .461-.074.766-.219.922-.137.156-.449.234-.937.234zm0 0" class="B"/><use xlink:href="#E" class="B"/><use xlink:href="#F" class="B"/><use xlink:href="#E" x="79.844" class="B"/><use xlink:href="#G" class="B"/><use xlink:href="#H" class="B"/><use xlink:href="#I" class="B"/><path d="M61.655 303.339c-.418 0-.75-.129-1-.391-.242-.258-.359-.617-.359-1.078v-36.328c0-.414.086-.719.266-.906.176-.195.457-.297.844-.297h14.703c.457 0 .781.063.969.188.195.117.367.367.516.75l5.469 16.719c.102.281.223.422.359.422.102 0 .207-.141.313-.422l4.891-16.141c.281-1.008.754-1.516 1.422-1.516h15.188c.633 0 .953.371.953 1.109v36.359c0 .563-.137.961-.406 1.188-.262.23-.687.344-1.281.344h-8.875c-.531 0-.898-.102-1.094-.312-.187-.207-.281-.539-.281-1v-23.609c0-.27-.07-.406-.203-.406-.18 0-.32.156-.422.469l-7.578 23.906c-.242.637-.656.953-1.25.953h-5.531c-.625 0-1.043-.316-1.25-.953l-7.578-23.484c-.105-.352-.227-.531-.359-.531-.18 0-.266.195-.266.578v23.234c0 .461-.074.766-.219.922-.137.156-.449.234-.937.234zm67.807.531c-3.813 0-7.152-.812-10.016-2.437-2.855-1.633-5.055-3.945-6.594-6.937-1.543-3-2.312-6.516-2.312-10.547s.781-7.562 2.344-10.594 3.77-5.379 6.625-7.047 6.172-2.5 9.953-2.5c3.75 0 7.039.836 9.875 2.5 2.844 1.668 5.047 4.016 6.609 7.047s2.344 6.563 2.344 10.594c0 3.992-.773 7.496-2.312 10.516-1.543 3.012-3.734 5.336-6.578 6.969-2.836 1.625-6.148 2.438-9.937 2.438zm0-8.203c1.539 0 2.766-.375 3.672-1.125.914-.758 1.582-1.977 2-3.656.426-1.687.641-3.945.641-6.781 0-4.344-.492-7.461-1.469-9.359s-2.594-2.844-4.844-2.844c-2.273 0-3.906.949-4.906 2.844s-1.5 5.016-1.5 9.359c0 2.836.207 5.094.625 6.781.426 1.68 1.102 2.898 2.031 3.656.926.75 2.176 1.125 3.75 1.125zm0 0"/><use xlink:href="#F" x="-2.323" y="-2.323"/><use xlink:href="#E" x="77.52" y="-2.323"/><use xlink:href="#G" x="-2.323" y="-2.323"/><use xlink:href="#H" x="-2.323" y="-2.323"/><use xlink:href="#I" x="-2.323" y="-2.323"/></g><g fill="#072349"><use xlink:href="#J" class="B"/><use xlink:href="#K" class="B"/><use xlink:href="#L" class="B"/><use xlink:href="#M" class="B"/><use xlink:href="#N" class="B"/><use xlink:href="#M" x="25.753" class="B"/><use xlink:href="#O" class="B"/><use xlink:href="#P" class="B"/><use xlink:href="#Q" class="B"/><path d="M205.089 315.78h-8.34v1h3.574v8.922h1.223v-8.922h3.543zm0 0" class="B"/><use xlink:href="#R" class="B"/><use xlink:href="#S" class="B"/><use xlink:href="#K" x="175.414" class="B"/><use xlink:href="#P" x="98.036" class="B"/><path d="M281.054 316.78v-1h-5.426v1h2.102v7.91h-2.102v.996h5.426v-.996h-2.102v-7.91zm6.642 7.91v-8.91h-1.238v9.906h6.422v-.996zm0 0" class="B"/><use xlink:href="#M" x="192.185" class="B"/><use xlink:href="#T" class="B"/><use xlink:href="#J" x="-0.658" y="-0.659"/><use xlink:href="#K" x="-0.658" y="-0.659"/><use xlink:href="#L" x="-0.659" y="-0.659"/><use xlink:href="#M" x="-0.658" y="-0.659"/><use xlink:href="#N" x="-0.658" y="-0.659"/><use xlink:href="#M" x="25.094" y="-0.659"/><use xlink:href="#O" x="-0.659" y="-0.659"/><use xlink:href="#P" x="-0.658" y="-0.659"/><use xlink:href="#Q" x="-0.658" y="-0.659"/><path d="M204.431 315.121h-8.34v1h3.574v8.922h1.223v-8.922h3.543zm0 0"/><use xlink:href="#R" x="-0.658" y="-0.659"/><use xlink:href="#S" x="-0.658" y="-0.659"/><use xlink:href="#K" x="174.755" y="-0.659"/><use xlink:href="#P" x="97.378" y="-0.659"/><path d="M280.396 316.121v-1h-5.426v1h2.102v7.91h-2.102v.996h5.426v-.996h-2.102v-7.91zm6.642 7.91v-8.91H285.8v9.906h6.422v-.996zm0 0"/><use xlink:href="#M" x="191.527" y="-0.659"/><use xlink:href="#T" x="-0.658" y="-0.659"/></g></svg>