<svg xmlns="http://www.w3.org/2000/svg" width="500" height="500" style="width:100%;height:100%;transform:translate3d(0,0,0);content-visibility:visible" viewBox="0 0 500 500"><defs><clipPath id="a"><path d="M0 0h500v500H0z"/></clipPath><clipPath id="c"><path d="M0 0h500v500H0z"/></clipPath><clipPath id="b"><path d="M0 0h500v500H0z"/></clipPath></defs><g clip-path="url(#a)"><g clip-path="url(#b)" style="display:block"><path fill="#121330" d="m161.27-6.684-187.5 208.125c-3.958 4.583-9.583 6.875-15.416 6.875-3.542 0-6.875-.833-10-2.5-8.542-4.792-12.708-14.792-10-23.959l33.958-119.375h-118.125c-8.125 0-15.417-4.583-18.75-11.875-3.542-7.292-2.5-15.833 2.708-22.083l187.5-229.167c6.042-7.708 16.667-9.791 25.417-5.416s13.125 14.166 10.833 23.541L26.687-41.893l119.167.417c8.333 0 15.625 4.792 18.958 12.292 3.333 7.5 2.083 16.458-3.542 22.5z" class="primary design" style="display:block" transform="translate(249.998 250.003)"/></g><g clip-path="url(#c)" opacity="0" style="display:block"><path class="primary design" style="display:none"/></g><g class="com" style="display:none"><path/><path/><path/><path/><path/><path/><path/><path/><path/><path/><path/><path/></g></g></svg>