<svg xmlns="http://www.w3.org/2000/svg" xmlns:xlink="http://www.w3.org/1999/xlink" width="500" zoomAndPan="magnify" viewBox="0 0 375 374.999991" height="500" preserveAspectRatio="xMidYMid meet" version="1.0"><defs><clipPath id="ac80a23588"><path d="M 104.125 123 L 270.625 123 L 270.625 304.484375 L 104.125 304.484375 Z M 104.125 123 " clip-rule="nonzero"/></clipPath><clipPath id="b7335e2356"><path d="M 146 70.484375 L 229 70.484375 L 229 124 L 146 124 Z M 146 70.484375 " clip-rule="nonzero"/></clipPath></defs><g clip-path="url(#ac80a23588)"><path fill="#006dff" d="M 250.019531 123.121094 L 124.730469 123.121094 C 113.402344 123.121094 104.214844 132.304688 104.214844 143.664062 L 104.214844 232.613281 C 122.046875 246.460938 145.882812 251.625 168.503906 245.257812 C 199.84375 236.441406 221.65625 207.546875 221.558594 175.011719 C 221.558594 171.292969 224.546875 168.265625 228.246094 168.253906 C 228.269531 168.253906 228.269531 168.253906 228.269531 168.253906 C 231.980469 168.253906 234.980469 171.257812 234.980469 174.960938 C 235.101562 213.53125 209.261719 247.773438 172.128906 258.199219 C 164.460938 260.367188 156.671875 261.410156 148.980469 261.410156 C 133.121094 261.410156 117.613281 257.007812 104.214844 248.902344 L 104.214844 283.929688 C 104.214844 295.273438 113.402344 304.46875 124.730469 304.46875 L 250.019531 304.46875 C 261.347656 304.46875 270.535156 295.273438 270.535156 283.929688 L 270.535156 143.664062 C 270.535156 132.304688 261.347656 123.121094 250.019531 123.121094 Z M 138.582031 205.4375 C 133.167969 206.957031 127.546875 203.804688 126.039062 198.386719 C 124.511719 192.964844 127.667969 187.347656 133.070312 185.816406 C 138.496094 184.304688 144.105469 187.457031 145.625 192.878906 C 147.144531 198.289062 143.984375 203.917969 138.582031 205.4375 Z M 179.402344 193.96875 C 173.976562 195.480469 168.367188 192.328125 166.847656 186.90625 C 165.332031 181.496094 168.488281 175.867188 173.890625 174.335938 C 179.304688 172.828125 184.925781 175.980469 186.457031 181.398438 C 187.964844 186.808594 184.804688 192.4375 179.402344 193.96875 Z M 179.402344 193.96875 " fill-opacity="1" fill-rule="nonzero"/></g><g clip-path="url(#b7335e2356)"><path fill="#000000" d="M 228.269531 123.109375 L 214.847656 123.109375 L 214.847656 111.445312 C 214.847656 96.273438 202.523438 83.9375 187.375 83.9375 C 172.226562 83.9375 159.90625 96.273438 159.90625 111.445312 L 159.90625 123.109375 L 146.46875 123.109375 L 146.46875 111.445312 C 146.46875 88.855469 164.816406 70.484375 187.375 70.484375 C 209.933594 70.484375 228.28125 88.855469 228.28125 111.445312 L 228.28125 123.109375 Z M 228.269531 123.109375 " fill-opacity="1" fill-rule="nonzero"/></g></svg>